<svg width="263" height="76" viewBox="0 0 263 76" fill="none" xmlns="http://www.w3.org/2000/svg">
<path fill-rule="evenodd" clip-rule="evenodd" d="M104.463 25.6135C106.334 27.25 106.523 30.093 104.887 31.9633L96.9728 41.0077L106.111 49.7482C107.906 51.4661 107.97 54.3146 106.252 56.1106C104.534 57.9065 101.685 57.9698 99.8895 56.2519L91.0404 47.7876L83.8866 55.9633C82.6521 57.3742 80.6722 57.8719 78.9172 57.2125C77.1623 56.5531 76 54.8748 76 53.0001V29.0001C76 26.5148 78.0147 24.5001 80.5 24.5001C82.9853 24.5001 85 26.5148 85 29.0001V41.0235L98.1134 26.0368C99.75 24.1664 102.593 23.9769 104.463 25.6135Z" fill="#232025"/>
<path d="M126.558 57.6H126.858C129.078 57.6 130.938 56.34 131.778 53.7L136.938 37.5L142.038 53.7C142.878 56.34 144.738 57.6 146.958 57.6H147.258C149.478 57.6 151.338 56.34 152.298 53.52L160.398 30.54C160.518 30.12 160.698 29.28 160.698 28.68C160.698 26.4 158.958 24.48 156.438 24.48C154.038 24.48 152.658 26.04 152.058 27.96L147.018 44.4L141.918 28.08C141.258 25.92 139.578 24.42 137.238 24.42H136.698C134.358 24.42 132.678 25.92 132.018 28.08L126.978 44.34L122.058 28.02C121.398 25.92 119.898 24.48 117.618 24.48C114.918 24.48 113.238 26.52 113.238 28.62C113.238 29.4 113.478 30.3 113.658 30.84L121.518 53.52C122.478 56.34 124.338 57.6 126.558 57.6Z" fill="#232025"/>
<path d="M178.923 57.6C183.363 57.6 186.423 55.98 188.643 53.52V53.58C188.643 55.5 190.383 57.36 193.023 57.36C195.483 57.36 197.463 55.44 197.463 52.98V38.34C197.463 34.02 196.383 30.48 193.983 28.08C191.703 25.8 188.103 24.48 183.123 24.48C178.863 24.48 175.743 25.08 172.863 26.16C171.423 26.7 170.403 28.08 170.403 29.7C170.403 31.8 172.083 33.42 174.183 33.42C174.603 33.42 174.963 33.36 175.503 33.18C177.243 32.64 179.283 32.28 181.803 32.28C186.363 32.28 188.703 34.38 188.703 38.16V38.7C186.423 37.92 184.083 37.38 180.843 37.38C173.223 37.38 167.883 40.62 167.883 47.64V47.76C167.883 54.12 172.863 57.6 178.923 57.6ZM181.683 51.3C178.743 51.3 176.703 49.86 176.703 47.4V47.28C176.703 44.4 179.103 42.84 183.003 42.84C185.223 42.84 187.263 43.32 188.823 44.04V45.66C188.823 48.96 185.943 51.3 181.683 51.3Z" fill="#232025"/>
<path d="M209.331 52.8C209.331 55.32 211.371 57.36 213.891 57.36C216.411 57.36 218.451 55.32 218.451 52.8V17.4C218.451 14.88 216.411 12.84 213.891 12.84C211.371 12.84 209.331 14.88 209.331 17.4V52.8Z" fill="#232025"/>
<path d="M231.037 52.8C231.037 55.32 233.077 57.36 235.597 57.36C238.117 57.36 240.157 55.32 240.157 52.8V29.04C240.157 26.52 238.117 24.48 235.597 24.48C233.077 24.48 231.037 26.52 231.037 29.04V52.8Z" fill="#232025"/>
<path d="M240.498 13C240.498 15.7614 238.26 18 235.498 18C232.737 18 230.498 15.7614 230.498 13C230.498 10.2386 232.737 8 235.498 8C238.26 8 240.498 10.2386 240.498 13Z" fill="#232025"/>
<rect y="16" width="52" height="52" rx="8" fill="#053F5C"/>
<path opacity="0.5" fill-rule="evenodd" clip-rule="evenodd" d="M23.3449 39.3771C25.0998 37.6173 27.949 37.6134 29.7088 39.3683L41.9129 51.5385C43.6727 53.2934 43.6766 56.1427 41.9217 57.9025C40.1668 59.6623 37.3176 59.6662 35.5578 57.9113L23.3537 45.7411C21.5939 43.9862 21.5899 41.1369 23.3449 39.3771Z" fill="url(#paint0_linear_1249_767)"/>
<path opacity="0.5" fill-rule="evenodd" clip-rule="evenodd" d="M15 23.5782C17.4329 23.5781 19.4053 25.6344 19.4053 28.1709L19.4055 53.518C19.4056 56.0545 17.4333 58.1108 15.0003 58.1108C12.5673 58.1108 10.595 56.0546 10.595 53.5181L10.5947 28.171C10.5947 25.6345 12.567 23.5782 15 23.5782Z" fill="url(#paint1_linear_1249_767)"/>
<path fill-rule="evenodd" clip-rule="evenodd" d="M40.0381 24.7251C41.9418 26.3228 42.1898 29.1612 40.5921 31.0649L18.3064 57.6181C16.7086 59.5218 13.8702 59.7698 11.9666 58.1721C10.0629 56.5743 9.81488 53.7359 11.4126 51.8323L33.6983 25.2791C35.296 23.3754 38.1345 23.1274 40.0381 24.7251Z" fill="url(#paint2_linear_1249_767)"/>
<defs>
<linearGradient id="paint0_linear_1249_767" x1="25.5573" y1="55.1307" x2="45.2309" y2="49.2404" gradientUnits="userSpaceOnUse">
<stop stop-color="#61C763"/>
<stop offset="1" stop-color="#61C763"/>
</linearGradient>
<linearGradient id="paint1_linear_1249_767" x1="3.22704" y1="40.3249" x2="25.7989" y2="52.0103" gradientUnits="userSpaceOnUse">
<stop stop-color="#61C763"/>
<stop offset="1" stop-color="#61C763"/>
</linearGradient>
<linearGradient id="paint2_linear_1249_767" x1="15.5619" y1="52.3495" x2="45.1449" y2="44.5678" gradientUnits="userSpaceOnUse">
<stop stop-color="#61C763"/>
<stop offset="1" stop-color="#61C763"/>
</linearGradient>
</defs>
</svg>
