<svg width="1440" height="700" viewBox="0 0 1440 900" fill="none" xmlns="http://www.w3.org/2000/svg" version="1.1"
          xmlns:xlink="http://www.w3.org/1999/xlink">

          <path d="M1267 478C1267 651.97 1125.97 793 952 793C778.03 793 637 651.97 637 478C637 304.03 778.03 163 952 163C1125.97 163 1267 304.03 1267 478Z" fill="#232025" id="planetMain"/>

          <path d="M 952 881 C 1174.57 881 1355 700.571 1355 478 C 1355 255.429 1174.57 75 952 75 C 729.429 75 549 255.429 549 478 C 549 700.571 729.429 881 952 881 Z M 952 882 Z" stroke="lightgrey" stroke-width="1" fill="none" id="planetClose"/>

          <circle r="5" fill="#C4C4C4">
            <animateMotion dur="8s" repeatCount="indefinite">
              <mpath xlink:href="#planetClose" />
            </animateMotion>
          </circle>


          <path fill-rule="evenodd" clip-rule="evenodd" d="M 952 1067 C 1277.3 1067 1541 803.296 1541 478 C 1541 152.704 1277.3 -111 952 -111 C 626.704 -111 363 152.704 363 478 C 363 803.296 626.704 1067 952 1067 Z M 952 1068 Z" stroke="lightgrey" stroke-width=".5" fill="none" id="planetFar"/>

          <circle r="25" fill="#C4C4C4">
            <animateMotion begin="2s" keyPoints="1;0" keyTimes="0;1" calcMode="linear" dur="12s" repeatCount="indefinite">
              <mpath xlink:href="#planetFar"/>
            </animateMotion>
          </circle>
        </svg>
