<svg width="140" height="140" viewBox="0 0 140 140" fill="none" xmlns="http://www.w3.org/2000/svg">
<path d="M88.4854 104.677H50.8059C50.1505 104.677 49.6191 104.145 49.6191 103.49V58.4228C49.6191 45.0341 54.1683 31.8577 62.4286 21.3207L65.9884 16.78C66.8751 15.6487 68.2082 15 69.6456 15C71.083 15 72.4161 15.6487 73.3028 16.78L76.8626 21.3207C85.123 31.8577 89.6721 45.0341 89.6721 58.4228V103.49C89.6721 104.145 89.1408 104.677 88.4854 104.677ZM51.9927 102.303H87.2986V58.4228C87.2986 45.5626 82.929 32.9062 74.9947 22.785L71.4349 18.2443C71.001 17.6909 70.3488 17.3735 69.6457 17.3735C68.9425 17.3735 68.2903 17.6909 67.8564 18.2443L64.2966 22.785C56.3623 32.9062 51.9927 45.5626 51.9927 58.4228V102.303H51.9927Z" fill="#FFF8E7"/>
<path d="M50.6583 104.674H30.1868C29.5314 104.674 29 104.143 29 103.487V82.1738C29 79.747 30.0058 77.393 31.7594 75.7155C31.7594 75.7155 31.7594 75.7155 31.7596 75.7155L49.838 58.4231C50.1812 58.0945 50.6874 58.0024 51.1246 58.1894C51.5615 58.3761 51.845 58.8055 51.845 59.2807V103.487C51.845 104.143 51.3137 104.674 50.6583 104.674ZM31.3735 102.301H49.4715V62.0581L33.4 77.4307C32.1122 78.6627 31.3735 80.3916 31.3735 82.1738V102.301Z" fill="#FFF8E7"/>
<path d="M109.107 104.674H88.636C87.9806 104.674 87.4492 104.142 87.4492 103.487V59.2803C87.4492 58.8051 87.7327 58.3758 88.1697 58.189C88.6075 58.0026 89.1132 58.0946 89.4562 58.4227L107.535 75.7151C107.535 75.7151 107.535 75.7151 107.535 75.7151C109.288 77.3927 110.294 79.7466 110.294 82.1734V103.487C110.294 104.142 109.763 104.674 109.107 104.674ZM89.8227 102.3H107.921V82.1734C107.921 80.3911 107.182 78.6623 105.894 77.4303H105.894L89.8228 62.0577V102.3H89.8227Z" fill="#FFF8E7"/>
<path d="M80.4759 47.4156C80.2481 47.4156 80.0211 47.3501 79.8238 47.2204L74.029 43.4101C71.3669 41.6597 67.9266 41.6597 65.2645 43.4101L59.4696 47.2204C59.1048 47.4602 58.6383 47.4808 58.2544 47.2733C57.8703 47.0663 57.6309 46.6651 57.6309 46.2288V39.9983C57.6309 39.599 57.8318 39.2262 58.1655 39.0067L65.9926 33.8602C68.2125 32.4008 71.0809 32.4008 73.3009 33.8602L81.1279 39.0067C81.4617 39.2262 81.6627 39.5989 81.6627 39.9983V46.2288C81.6627 46.6651 81.4232 47.0663 81.0391 47.2733C80.863 47.3685 80.6691 47.4156 80.4759 47.4156ZM69.6467 39.7235C71.6263 39.7235 73.6058 40.2913 75.3331 41.4269L79.2891 44.0281V40.6384L71.9968 35.8434C70.5694 34.9048 68.7244 34.9048 67.2967 35.8434L60.0044 40.6384V44.0281L63.9604 41.4269C65.6877 40.2913 67.6671 39.7235 69.6467 39.7235Z" fill="#FFF8E7"/>
<path d="M59.4119 118.999C56.2036 118.999 52.9955 118.013 50.1341 116.039C49.7507 115.775 49.5572 115.31 49.64 114.852L51.7258 103.281C51.8276 102.716 52.3195 102.305 52.8937 102.305H65.93C66.5043 102.305 66.9961 102.716 67.098 103.281L69.1838 114.852C69.2665 115.31 69.0731 115.775 68.6896 116.039C65.8282 118.013 62.6201 118.999 59.4119 118.999ZM52.1152 114.5C56.6777 117.321 62.1462 117.321 66.7086 114.5L64.9382 104.678H53.8857L52.1152 114.5Z" fill="#FFF8E7"/>
<path d="M79.8826 118.999C76.6744 118.999 73.4663 118.013 70.6048 116.039C70.2214 115.775 70.028 115.31 70.1107 114.852L72.1965 103.281C72.2983 102.716 72.7902 102.305 73.3644 102.305H86.4008C86.975 102.305 87.4668 102.716 87.5687 103.281L89.6545 114.852C89.7373 115.31 89.5438 115.775 89.1604 116.039C86.2989 118.013 83.0909 118.999 79.8826 118.999ZM72.5859 114.5C77.1483 117.321 82.6168 117.321 87.1793 114.5L85.4089 104.678H74.3563L72.5859 114.5Z" fill="#FFF8E7"/>
<path d="M69.6458 97.2593C68.9904 97.2593 68.459 96.7279 68.459 96.0725V75.8977C68.459 75.2423 68.9904 74.7109 69.6458 74.7109C70.3011 74.7109 70.8325 75.2423 70.8325 75.8977V96.0725C70.8325 96.7279 70.3011 97.2593 69.6458 97.2593Z" fill="#FFF8E7"/>
<path d="M69.6458 66.6977C68.9904 66.6977 68.459 66.1664 68.459 65.511V59.2805C68.459 58.6252 68.9904 58.0938 69.6458 58.0938C70.3011 58.0938 70.8325 58.6251 70.8325 59.2805V65.511C70.8325 66.1664 70.3011 66.6977 69.6458 66.6977Z" fill="#FFF8E7"/>
</svg>
