<svg width="291" height="291" viewBox="0 0 291 291" fill="none" xmlns="http://www.w3.org/2000/svg">
<path d="M144.549 1.03603C144.816 -0.203256 146.584 -0.203253 146.852 1.03603L172.091 118.006C172.189 118.458 172.542 118.811 172.994 118.909L289.964 144.149C291.203 144.416 291.203 146.184 289.964 146.451L172.994 171.691C172.542 171.789 172.189 172.142 172.091 172.594L146.852 289.564C146.584 290.803 144.816 290.803 144.549 289.564L119.309 172.594C119.211 172.142 118.858 171.789 118.406 171.691L1.43613 146.451C0.196845 146.184 0.196847 144.416 1.43613 144.149L118.406 118.909C118.858 118.811 119.211 118.458 119.309 118.006L144.549 1.03603Z" fill="#FFFFFF"/>
</svg>
