<svg width="1075" height="128" viewBox="0 0 1075 128" fill="none" xmlns="http://www.w3.org/2000/svg">
<path d="M508.019 92.1823C511.194 97.6695 515.854 102.148 521.463 105.103C527.188 108.18 533.961 109.747 541.605 109.747C546.698 109.814 551.775 109.152 556.681 107.782C560.749 106.644 564.594 104.824 568.053 102.399C571.011 100.312 573.534 97.6707 575.483 94.6212C577.23 91.9128 578.313 88.8301 578.642 85.6242C578.663 85.4057 578.637 85.1854 578.567 84.9774C578.497 84.7694 578.385 84.5784 578.236 84.4165C578.088 84.2547 577.908 84.1257 577.707 84.0377C577.506 83.9497 577.289 83.9047 577.069 83.9056H557.736C557.356 83.9049 556.989 84.0413 556.703 84.2897C556.416 84.5382 556.228 84.882 556.175 85.2577C556.039 86.0001 555.737 86.7022 555.291 87.311C554.679 88.1511 553.903 88.8582 553.01 89.3897C551.706 90.1589 550.291 90.7214 548.815 91.0577C546.728 91.5485 544.589 91.7777 542.446 91.7401C538.712 91.7401 535.578 90.9882 533.12 89.5034C530.67 88.0249 528.746 85.8151 527.617 83.1853C527.243 82.3413 526.93 81.4714 526.682 80.5823H577.764C578.134 80.5809 578.492 80.45 578.776 80.2122C579.06 79.9745 579.252 79.645 579.318 79.2807C579.44 78.4984 579.512 77.7091 579.533 76.9178C579.578 75.9195 579.596 74.8771 579.596 73.8219C579.596 66.5055 578.042 59.9914 574.978 54.4504C571.929 48.9128 567.346 44.3735 561.779 41.3783C556.137 38.295 549.377 36.7344 541.688 36.7344C534.175 36.7344 527.453 38.2697 521.71 41.3087C516.068 44.232 511.365 48.686 508.139 54.1598C504.91 59.625 503.273 66.0505 503.273 73.2532C503.273 80.4559 504.859 86.7171 508.019 92.1823ZM526.973 64.4458C527.168 63.8821 527.394 63.3294 527.649 62.7903C528.817 60.2366 530.74 58.1022 533.158 56.6744V56.6744C535.834 55.1811 538.865 54.4389 541.928 54.5263C545.327 54.5263 548.132 55.1581 550.249 56.4218C552.235 57.5411 553.859 59.2049 554.931 61.2171C555.458 62.2404 555.857 63.3249 556.118 64.4458H526.973Z" fill="black"/>
<path d="M447.277 108.23H466.926C467.345 108.23 467.747 108.064 468.043 107.767C468.339 107.471 468.506 107.069 468.506 106.651V74.9966C468.509 72.8052 468.79 70.6229 469.34 68.5016C469.868 66.4537 470.779 64.5242 472.025 62.8153C473.309 61.0955 474.988 59.7106 476.921 58.778C479.356 57.6781 482.01 57.1527 484.68 57.2426C486.211 57.1941 487.739 57.397 489.204 57.843C489.986 58.0974 490.752 58.399 491.497 58.7464C491.716 58.8693 491.961 58.938 492.212 58.9469C492.462 58.9559 492.712 58.9048 492.939 58.7978C493.165 58.6908 493.363 58.5312 493.516 58.3321C493.669 58.133 493.772 57.9003 493.816 57.6534L497.038 40.089C497.097 39.7633 497.053 39.4274 496.911 39.1283C496.77 38.8292 496.538 38.5819 496.248 38.421C495.212 37.944 494.125 37.5877 493.007 37.3595V37.3595C490.793 36.8705 488.526 36.6583 486.259 36.7277C482.912 36.6717 479.586 37.2683 476.466 38.4841C473.677 39.609 471.146 41.2877 469.024 43.4186L468.506 43.9621V39.5708C468.506 39.1519 468.339 38.7503 468.043 38.454C467.747 38.1578 467.345 37.9913 466.926 37.9913H447.277C446.858 37.9913 446.456 38.1578 446.16 38.454C445.863 38.7503 445.697 39.1519 445.697 39.5708V106.67C445.702 107.085 445.871 107.482 446.166 107.774C446.462 108.066 446.861 108.23 447.277 108.23V108.23Z" fill="black"/>
<path fill-rule="evenodd" clip-rule="evenodd" d="M409.622 34.2738C411.593 33.5138 413.694 33.1519 415.806 33.209C419.994 33.3199 423.971 35.0706 426.881 38.0845C429.792 41.0984 431.402 45.1345 431.367 49.3241C431.331 53.5136 429.652 57.5217 426.691 60.4857C423.73 63.4497 419.723 65.1326 415.534 65.1723H415.25C413.138 65.1559 411.05 64.7212 409.107 63.8931C407.164 63.065 405.404 61.8601 403.929 60.3479C402.455 58.8358 401.295 57.0464 400.516 55.0832C399.737 53.1199 399.354 51.0217 399.391 48.9099C399.428 46.7981 399.883 44.7146 400.73 42.7796C401.576 40.8447 402.798 39.0967 404.324 37.6367C405.851 36.1768 407.651 35.0338 409.622 34.2738ZM413.505 60.4902C415.743 61.0442 418.106 60.7634 420.152 59.7005L420.215 59.6625C420.236 59.6517 420.254 59.6356 420.268 59.6156C420.281 59.5957 420.289 59.5727 420.291 59.5488C420.293 59.5289 420.29 59.5088 420.284 59.4898C420.278 59.4707 420.268 59.4531 420.255 59.4378C420.242 59.4225 420.227 59.4099 420.209 59.4008C420.191 59.3916 420.172 59.3862 420.152 59.3846L418.692 59.2709C418.212 59.2014 417.726 59.1255 417.252 59.0181L417.249 59.0174C416.776 58.9102 416.303 58.803 415.843 58.6517C415.552 58.5562 415.266 58.448 414.981 58.34C414.814 58.2766 414.646 58.2133 414.478 58.1526C410.883 56.5891 408.015 53.7189 406.454 50.1222C406.4 49.9767 406.34 49.8323 406.281 49.6881C406.156 49.3816 406.03 49.0753 405.949 48.7574C405.907 48.5963 405.861 48.4359 405.814 48.2753C405.725 47.9697 405.636 47.6632 405.582 47.3485C405.55 47.1598 405.516 46.972 405.481 46.7841C405.428 46.4939 405.375 46.2032 405.329 45.9079L405.216 44.4484C405.214 44.4237 405.206 44.3999 405.193 44.379C405.179 44.3581 405.161 44.3407 405.14 44.3284C405.105 44.31 405.065 44.3056 405.027 44.3162C404.99 44.3268 404.957 44.3516 404.938 44.3853L404.9 44.4484C403.843 46.494 403.566 48.8544 404.122 51.0888C404.653 53.3755 405.813 55.468 407.471 57.1296C409.129 58.7911 411.219 59.9553 413.505 60.4902Z" fill="black"/>
<path d="M415.319 73.2706C411.055 73.2706 407.346 72.3166 405.21 70.9392C405.116 70.8752 405.005 70.838 404.891 70.8317C404.777 70.8254 404.664 70.8503 404.562 70.9034C404.461 70.9566 404.377 71.036 404.317 71.1336C404.258 71.2311 404.226 71.343 404.225 71.4572V106.643C404.225 107.062 404.391 107.464 404.687 107.76C404.984 108.056 405.385 108.223 405.804 108.223H425.201C425.62 108.223 426.021 108.056 426.318 107.76C426.614 107.464 426.78 107.062 426.78 106.643V71.4068C426.777 71.2946 426.743 71.1855 426.683 71.0907C426.623 70.9959 426.538 70.9187 426.439 70.8672C426.339 70.8157 426.227 70.7918 426.115 70.7978C426.003 70.8038 425.895 70.8395 425.801 70.9013C423.665 72.3544 419.742 73.3085 415.319 73.2706Z" fill="black"/>
<path d="M312.118 88.8137C313.787 93.1748 316.353 97.1372 319.649 100.445C322.745 103.485 326.437 105.851 330.491 107.395C334.513 108.933 338.783 109.719 343.089 109.714C348.408 109.752 353.648 108.434 358.316 105.885C359.812 105.067 361.23 104.111 362.549 103.029V106.618C362.549 107.037 362.716 107.439 363.012 107.735C363.308 108.031 363.71 108.198 364.129 108.198H383.715C384.134 108.198 384.535 108.031 384.832 107.735C385.128 107.439 385.294 107.037 385.294 106.618V39.5196C385.294 39.1007 385.128 38.6989 384.832 38.4027C384.535 38.1064 384.134 37.9401 383.715 37.9401H364.129C363.71 37.9401 363.308 38.1064 363.012 38.4027C362.716 38.6989 362.549 39.1007 362.549 39.5196V43.6517C361.238 42.5488 359.832 41.5635 358.348 40.7073C353.71 38.0325 348.443 36.6412 343.089 36.6764C338.861 36.6778 334.669 37.4506 330.718 38.9572C326.675 40.495 322.976 42.8161 319.832 45.7871C316.501 48.9717 313.886 52.8292 312.162 57.1028C310.21 62.0413 309.255 67.3172 309.35 72.6265C309.35 78.7678 310.286 84.2077 312.118 88.8137ZM348.46 90.033C345.884 90.0275 343.347 89.4126 341.055 88.2386C338.663 87.0075 336.685 85.1004 335.368 82.7545C333.896 80.2273 333.151 76.9229 333.151 72.8477C333.151 68.7725 333.89 65.5186 335.35 63.1557C336.668 60.923 338.63 59.1412 340.979 58.0442C343.32 56.9726 345.866 56.4188 348.441 56.4206C350.83 56.4161 353.192 56.9358 355.359 57.9432C357.477 58.9274 359.276 60.4861 360.552 62.4418C361.867 64.4194 362.53 67.0286 362.53 70.194V75.8803C362.63 78.6284 361.939 81.3474 360.54 83.7149C359.277 85.7333 357.482 87.3642 355.353 88.4282C353.21 89.4887 350.851 90.038 348.46 90.033V90.033Z" fill="black"/>
<path d="M249.272 0H229.939C229.067 0 228.359 0.707181 228.359 1.57953V125.604C228.359 126.477 229.067 127.184 229.939 127.184H249.272C250.145 127.184 250.852 126.477 250.852 125.604V1.57953C250.852 0.707181 250.145 0 249.272 0Z" fill="black"/>
<path d="M292.741 0H273.408C272.535 0 271.828 0.707181 271.828 1.57953V125.604C271.828 126.477 272.535 127.184 273.408 127.184H292.741C293.614 127.184 294.321 126.477 294.321 125.604V1.57953C294.321 0.707181 293.614 0 292.741 0Z" fill="black"/>
<path d="M141.112 92.1823C144.291 97.6667 148.95 102.145 154.557 105.103C160.281 108.18 167.06 109.747 174.705 109.747C179.798 109.813 184.875 109.152 189.78 107.782C193.848 106.642 197.693 104.822 201.153 102.399C204.108 100.312 206.63 97.6705 208.577 94.6212C210.32 91.9108 211.402 88.8291 211.736 85.6242C211.755 85.4059 211.729 85.186 211.659 84.9785C211.588 84.7709 211.476 84.5802 211.328 84.4185C211.18 84.2569 211 84.1278 210.799 84.0395C210.599 83.9512 210.382 83.9057 210.163 83.9056H190.829C190.449 83.9047 190.081 84.0409 189.794 84.2893C189.506 84.5376 189.317 84.8814 189.262 85.2577C189.132 86.0006 188.831 86.7034 188.384 87.311C187.77 88.1511 186.992 88.8582 186.097 89.3897C184.796 90.1603 183.383 90.723 181.908 91.0577C179.822 91.5485 177.683 91.7777 175.54 91.7401C171.806 91.7401 168.672 90.9882 166.214 89.5034C163.764 88.0249 161.839 85.8151 160.711 83.1853C160.335 82.3415 160.02 81.4716 159.769 80.5823H210.858C211.228 80.5809 211.586 80.45 211.87 80.2122C212.154 79.9745 212.346 79.645 212.412 79.2807C212.53 78.498 212.602 77.709 212.627 76.9178C212.665 75.9195 212.69 74.8771 212.69 73.8219C212.69 66.5055 211.136 59.9914 208.071 54.4504C205.023 48.9128 200.44 44.3735 194.873 41.3783C189.224 38.295 182.47 36.7344 174.781 36.7344C167.269 36.7344 160.546 38.2697 154.803 41.3087C149.161 44.2335 144.456 48.687 141.226 54.1598C138.004 59.625 136.367 66.0442 136.367 73.2532C136.367 80.4622 137.953 86.7171 141.112 92.1823ZM160.066 64.4458C160.275 63.8645 160.502 63.3084 160.749 62.7903C161.926 60.2422 163.846 58.1101 166.258 56.6744V56.6744C168.934 55.1811 171.964 54.4389 175.028 54.5263C178.427 54.5263 181.226 55.1581 183.349 56.4218C185.333 57.5413 186.955 59.2052 188.024 61.2171C188.554 62.2392 188.953 63.324 189.212 64.4458H160.066Z" fill="black"/>
<path d="M128.091 38.1428H109.705V17.6088C109.705 17.1899 109.539 16.7883 109.242 16.4921C108.946 16.1958 108.545 16.0293 108.126 16.0293H91.4459C91.027 16.0293 90.625 16.1958 90.3288 16.4921C90.0326 16.7883 89.8664 17.1899 89.8664 17.6088V28.2866C89.8924 30.3645 89.8016 32.4421 89.5946 34.5098C89.5579 35.4234 89.2741 36.31 88.7734 37.075C88.2906 37.5487 87.6537 37.8335 86.9788 37.8774C85.3379 38.0806 83.6852 38.1693 82.032 38.1428H75.5873C75.1684 38.1428 74.7668 38.3093 74.4706 38.6055C74.1743 38.9017 74.0078 39.3034 74.0078 39.7223V52.9904C74.0078 53.4093 74.1743 53.8111 74.4706 54.1073C74.7668 54.4035 75.1684 54.5699 75.5873 54.5699H89.8664V89.5724C89.8664 93.8119 90.5612 97.3058 91.9386 99.9657C93.1941 102.495 95.125 104.627 97.5176 106.126C99.7794 107.501 102.274 108.45 104.878 108.925C107.39 109.399 109.941 109.64 112.498 109.645C114.336 109.661 116.173 109.504 117.982 109.178C119.243 108.955 120.485 108.636 121.697 108.224C122.001 108.111 122.263 107.909 122.448 107.644C122.633 107.378 122.733 107.062 122.733 106.739V93.7235C122.732 93.4621 122.666 93.205 122.542 92.9752C122.418 92.7454 122.238 92.5498 122.02 92.406C121.802 92.2622 121.551 92.1746 121.291 92.1509C121.031 92.1272 120.769 92.1682 120.528 92.2703C119.755 92.5665 118.955 92.7887 118.14 92.9337C116.991 93.1722 115.82 93.2886 114.646 93.2811C111.809 93.2811 111.057 92.226 110.742 91.4299C109.975 89.1962 109.627 86.8399 109.718 84.48V54.5321H128.104C128.523 54.5321 128.924 54.3656 129.221 54.0694C129.517 53.7731 129.683 53.3715 129.683 52.9526V39.6845C129.673 39.27 129.501 38.8759 129.203 38.5875C128.905 38.299 128.506 38.1393 128.091 38.1428Z" fill="black"/>
<path d="M2.82093 96.7175C4.70968 99.691 7.26138 102.186 10.2762 104.009C13.4999 105.969 17.0081 107.419 20.6758 108.305C24.5825 109.271 28.5927 109.755 32.617 109.745C36.5476 109.751 40.467 109.327 44.3056 108.482C47.976 107.686 51.5085 106.351 54.7876 104.52C57.9074 102.792 60.5562 100.326 62.502 97.3367C64.4979 94.128 65.5104 90.4049 65.4145 86.6273C65.4145 82.6027 64.4543 79.2035 62.5652 76.5183C60.6828 73.8641 58.2052 71.6875 55.3308 70.1624C52.4202 68.5938 49.3316 67.3805 46.1316 66.5484C42.9725 65.7208 39.9082 65.0573 37.0524 64.5898C34.1966 64.1222 31.5053 63.5599 29.275 63.0039C27.5779 62.647 25.9608 61.9809 24.5046 61.0389C24.1162 60.8146 23.7944 60.4911 23.5724 60.1013C23.3503 59.7116 23.2359 59.2697 23.241 58.8212C23.217 58.3985 23.3057 57.9771 23.4977 57.5997C23.6897 57.2223 23.9782 56.9026 24.334 56.6731C25.4714 55.9211 26.7472 55.4035 28.087 55.1505C31.1421 54.4095 34.3381 54.4835 37.3556 55.3652C38.6455 55.7493 39.8274 56.4311 40.8056 57.3555C41.194 57.7451 41.4962 58.2118 41.6932 58.7254C41.8901 59.2391 41.9773 59.7883 41.9489 60.3377V61.0958C41.9481 61.3035 41.9886 61.5092 42.0677 61.7012C42.1468 61.8933 42.263 62.0678 42.4098 62.2146C42.5567 62.3614 42.7312 62.4778 42.9232 62.5569C43.1152 62.636 43.3208 62.6762 43.5285 62.6753H62.7988C63.2177 62.6753 63.6196 62.509 63.9158 62.2127C64.2121 61.9165 64.3783 61.5147 64.3783 61.0958V60.2113C64.4738 55.5146 62.829 50.9484 59.76 47.3918C56.5838 43.8105 52.5672 41.0748 48.0715 39.4309C43.1873 37.5927 38.0061 36.6696 32.7876 36.7078C27.4557 36.6511 22.1525 37.4928 17.1 39.1972C12.6204 40.6531 8.59378 43.2432 5.41143 46.7157C2.37829 50.1805 0.760698 54.6604 0.88107 59.2636C0.786415 62.6479 1.71585 65.9818 3.54746 68.8292C5.32839 71.4515 7.68912 73.6285 10.4468 75.1916C13.3056 76.8294 16.3492 78.121 19.5134 79.0392C22.6425 79.9587 25.8242 80.6889 29.0412 81.2254C34.3547 82.1289 38.2404 83.0388 40.5971 83.9296C42.9537 84.8205 43.2758 86.1346 43.2758 87.1897C43.281 87.6207 43.1808 88.0463 42.9836 88.4296C42.7865 88.8128 42.4984 89.142 42.1448 89.3884C41.0183 90.2136 39.7241 90.7808 38.3539 91.05C36.6318 91.4289 34.8734 91.6176 33.11 91.6124C29.673 91.6124 26.9561 91.0944 25.0291 90.0835C24.2739 89.7422 23.6393 89.1808 23.2086 88.4728C22.778 87.7648 22.5714 86.9432 22.6157 86.1157V85.231C22.6165 85.0234 22.576 84.8176 22.4969 84.6256C22.4178 84.4336 22.3016 84.2591 22.1548 84.1123C22.0079 83.9654 21.8335 83.8492 21.6414 83.7701C21.4494 83.691 21.2438 83.6507 21.0362 83.6515H1.5826C1.37494 83.6507 1.16903 83.691 0.977014 83.7701C0.784999 83.8492 0.610506 83.9654 0.463666 84.1123C0.316826 84.2591 0.20062 84.4336 0.121537 84.6256C0.0424541 84.8176 0.00223643 85.0234 0.0030721 85.231V86.3683C-0.0622503 90.016 0.915346 93.6065 2.82093 96.7175V96.7175Z" fill="black"/>
<path d="M625.992 67.6555C620.421 67.5584 615.04 69.678 611.032 73.5484C607.024 77.4188 604.718 82.7228 604.62 88.2936C604.523 93.8644 606.643 99.2456 610.513 103.253C614.384 107.261 619.688 109.568 625.259 109.665H625.631C631.148 109.629 636.429 107.424 640.334 103.527C644.239 99.6305 646.454 94.354 646.501 88.8375C646.549 83.3209 644.424 78.0071 640.587 74.0439C636.749 70.0806 631.507 67.786 625.992 67.6555Z" fill="black"/>
<path fill-rule="evenodd" clip-rule="evenodd" d="M972.517 34.2738C974.487 33.5138 976.589 33.1519 978.7 33.209C982.889 33.3199 986.866 35.0706 989.776 38.0845C992.687 41.0984 994.297 45.1345 994.261 49.3241C994.226 53.5136 992.547 57.5217 989.586 60.4857C986.625 63.4497 982.618 65.1326 978.428 65.1723H978.144C976.032 65.1559 973.945 64.7212 972.002 63.8931C970.059 63.065 968.299 61.8601 966.824 60.3479C965.35 58.8358 964.189 57.0464 963.41 55.0832C962.631 53.1199 962.249 51.0217 962.286 48.9099C962.322 46.7981 962.778 44.7146 963.625 42.7796C964.471 40.8447 965.693 39.0967 967.219 37.6367C968.745 36.1768 970.546 35.0338 972.517 34.2738ZM980.786 37.2773C978.548 36.7234 976.185 37.0042 974.139 38.0671L974.076 38.1051C974.055 38.1159 974.037 38.132 974.023 38.1519C974.01 38.1719 974.002 38.1949 974 38.2187C973.998 38.2387 974.001 38.2588 974.007 38.2778C974.013 38.2969 974.023 38.3145 974.036 38.3298C974.049 38.3451 974.064 38.3577 974.082 38.3668C974.1 38.3759 974.119 38.3814 974.139 38.383L975.599 38.4967C976.079 38.5662 976.565 38.6421 977.039 38.7495L977.042 38.7502C977.515 38.8574 977.988 38.9646 978.448 39.1159C978.739 39.2114 979.025 39.3196 979.31 39.4276C979.477 39.4909 979.645 39.5543 979.813 39.615C983.409 41.1785 986.276 44.0486 987.837 47.6453C987.891 47.7909 987.951 47.9352 988.01 48.0795C988.135 48.386 988.261 48.6922 988.343 49.0102C988.384 49.1713 988.431 49.3317 988.477 49.4923C988.566 49.7978 988.655 50.1044 988.709 50.4191C988.741 50.6078 988.776 50.7955 988.81 50.9835C988.863 51.2737 988.916 51.5643 988.962 51.8596L989.076 53.3192C989.077 53.3438 989.085 53.3676 989.098 53.3886C989.112 53.4095 989.13 53.4269 989.151 53.4392C989.186 53.4576 989.226 53.462 989.264 53.4514C989.301 53.4408 989.334 53.416 989.353 53.3822L989.391 53.3192C990.449 51.2736 990.725 48.9132 990.169 46.6788C989.638 44.3921 988.478 42.2995 986.82 40.638C985.162 38.9765 983.072 37.8123 980.786 37.2773Z" fill="black"/>
<path d="M978.257 73.2268C976.564 73.2319 974.873 73.0924 973.203 72.8099C973.157 72.8015 973.11 72.8033 973.066 72.815C973.021 72.8267 972.98 72.8481 972.944 72.8776C972.909 72.9071 972.88 72.9441 972.86 72.9859C972.841 73.0277 972.83 73.0732 972.83 73.1194V106.65C972.83 107.069 972.997 107.47 973.293 107.767C973.589 108.063 973.991 108.229 974.41 108.229H982.048C982.256 108.23 982.461 108.19 982.653 108.111C982.845 108.032 983.02 107.915 983.167 107.769C983.314 107.622 983.43 107.447 983.509 107.255C983.588 107.063 983.629 106.857 983.628 106.65C983.628 106.65 983.628 81.0677 983.628 73.1194C983.627 73.0732 983.617 73.0277 983.597 72.9859C983.578 72.9441 983.549 72.9071 983.514 72.8776C983.478 72.8481 983.437 72.8267 983.392 72.815C983.347 72.8033 983.3 72.8015 983.255 72.8099C981.604 73.0923 979.932 73.2317 978.257 73.2268V73.2268Z" fill="black"/>
<path d="M886.88 92.7568C889.323 97.8888 893.195 102.206 898.031 105.191C902.724 107.923 908.05 109.382 913.48 109.423C918.91 109.464 924.257 108.085 928.99 105.424C931.269 104.108 933.369 102.505 935.239 100.654V106.65C935.239 107.069 935.405 107.471 935.701 107.767C935.998 108.063 936.4 108.23 936.819 108.23H944.653C944.861 108.231 945.066 108.19 945.258 108.111C945.45 108.032 945.625 107.916 945.772 107.769C945.918 107.622 946.035 107.448 946.114 107.256C946.193 107.064 946.233 106.858 946.232 106.65V7.8979C946.233 7.69024 946.193 7.48448 946.114 7.29247C946.035 7.10045 945.918 6.92596 945.772 6.77912C945.625 6.63228 945.45 6.51592 945.258 6.43684C945.066 6.35775 944.861 6.31754 944.653 6.31837H936.819C936.4 6.31837 935.998 6.48475 935.701 6.78097C935.405 7.07719 935.239 7.47899 935.239 7.8979V45.5918C933.301 43.7341 931.125 42.1407 928.769 40.8532C924.154 38.3107 918.964 36.9925 913.694 37.0244C908.202 36.9678 902.803 38.4355 898.095 41.264C893.284 44.2485 889.412 48.5297 886.924 53.6158C884.188 58.9546 882.799 65.5066 882.799 73.101C882.799 80.6954 884.189 87.38 886.88 92.7568ZM924.972 96.2128C921.854 97.99 918.32 98.9099 914.731 98.879C908.659 98.879 903.8 96.7813 899.883 92.4723C895.966 88.1634 894.007 81.6684 894.007 73.101C894.007 64.5336 895.985 57.9375 899.883 53.6917C903.781 49.4459 908.653 47.323 914.731 47.323C918.273 47.3034 921.758 48.2119 924.84 49.9577C927.901 51.6672 930.503 54.093 932.421 57.0277C934.297 59.887 935.283 63.2373 935.258 66.6565V78.9579C935.3 82.4979 934.331 85.9764 932.465 88.9849C930.614 91.9854 928.038 94.4712 924.972 96.2128V96.2128Z" fill="black"/>
<path d="M806.07 90.4431C806.811 93.7049 808.138 96.8048 809.988 99.5918C812.001 102.569 814.727 104.995 817.917 106.649C821.278 108.45 825.537 109.366 830.553 109.366C834.499 109.437 838.413 108.649 842.024 107.058C845.635 105.466 848.856 103.108 851.466 100.148V106.649C851.466 107.068 851.632 107.47 851.929 107.766C852.225 108.062 852.627 108.229 853.045 108.229H860.88C861.299 108.229 861.701 108.062 861.997 107.766C862.293 107.47 862.46 107.068 862.46 106.649V39.5505C862.46 39.1316 862.293 38.73 861.997 38.4338C861.701 38.1375 861.299 37.971 860.88 37.971H853.045C852.627 37.971 852.225 38.1375 851.929 38.4338C851.632 38.73 851.466 39.1316 851.466 39.5505V77.6489C851.441 81.1718 850.574 84.6377 848.939 87.7579C847.311 90.9868 844.926 93.7744 841.989 95.8831C839.05 97.9702 835.522 99.0617 831.918 98.9979C827.868 98.9979 824.665 98.1071 822.39 96.357C820.079 94.5863 818.369 92.1463 817.494 89.3691C816.484 86.2557 815.978 83.0007 815.996 79.7276V39.5444C815.996 39.1255 815.83 38.7237 815.533 38.4274C815.237 38.1312 814.836 37.9648 814.417 37.9648H806.519C806.1 37.9648 805.698 38.1312 805.402 38.4274C805.106 38.7237 804.939 39.1255 804.939 39.5444V81.4335C804.982 84.4693 805.361 87.4911 806.07 90.4431V90.4431Z" fill="black"/>
<path d="M743.705 48.0002H758.299V91.469C758.218 94.3837 758.659 97.2894 759.601 100.049C760.309 102.11 761.521 103.962 763.128 105.434C764.735 106.906 766.685 107.953 768.8 108.477C770.736 108.974 772.727 109.225 774.726 109.223C776.189 109.23 777.649 109.116 779.092 108.882C780.224 108.716 781.334 108.428 782.403 108.022C782.693 107.904 782.94 107.701 783.115 107.442C783.289 107.182 783.382 106.876 783.382 106.563V99.7393C783.381 99.478 783.316 99.221 783.191 98.9912C783.067 98.7613 782.887 98.5658 782.669 98.422C782.451 98.2782 782.201 98.1906 781.94 98.1669C781.68 98.1432 781.418 98.1842 781.177 98.2863C780.448 98.5614 779.692 98.7604 778.922 98.8801C777.88 99.0714 776.823 99.1687 775.763 99.1707C772.427 99.1707 771.34 97.8186 770.816 96.7951C769.818 94.8997 769.318 92.1324 769.318 88.6195V48.0002H789.22C789.639 48.0002 790.041 47.8338 790.337 47.5376C790.633 47.2414 790.8 46.8396 790.8 46.4207V39.534C790.8 39.115 790.633 38.7132 790.337 38.417C790.041 38.1208 789.639 37.9544 789.22 37.9544H769.318V17.8627C769.318 17.4438 769.152 17.042 768.856 16.7458C768.559 16.4496 768.158 16.2832 767.739 16.2832H759.904C759.485 16.2832 759.084 16.4496 758.787 16.7458C758.491 17.042 758.325 17.4438 758.325 17.8627V34.2266C758.325 35.4334 758.293 36.3874 758.236 37.0571C758.221 37.2913 758.176 37.5227 758.104 37.7459C757.987 37.797 757.864 37.8289 757.737 37.8406C756.946 37.9285 756.151 37.9665 755.356 37.9544H743.73C743.311 37.9544 742.909 38.1208 742.613 38.417C742.317 38.7132 742.15 39.115 742.15 39.534V46.4207C742.15 46.8352 742.313 47.2331 742.604 47.5286C742.895 47.8241 743.29 47.9936 743.705 48.0002V48.0002Z" fill="black"/>
<path d="M671.741 88.9902C671.742 92.0467 672.518 95.053 673.997 97.7282C675.493 100.329 677.576 102.545 680.081 104.198C682.86 106.019 685.934 107.344 689.166 108.115C692.912 109.023 696.755 109.465 700.609 109.429C704.371 109.446 708.122 109.022 711.786 108.166C715.051 107.421 718.17 106.14 721.016 104.375C723.598 102.757 725.762 100.553 727.334 97.9431C728.516 96.025 729.308 93.8927 729.664 91.6683C730.021 89.4439 729.935 87.1709 729.412 84.9797C728.889 82.7884 727.939 80.7218 726.617 78.898C725.294 77.0742 723.625 75.5291 721.705 74.3511C719.057 72.7363 716.208 71.4767 713.232 70.6045C709.793 69.5799 706.298 68.7551 702.763 68.1342C699.198 67.4958 695.676 66.6369 692.218 65.5627C689.803 64.8818 687.572 63.6659 685.691 62.0055C684.997 61.3215 684.457 60.4985 684.104 59.5902C683.751 58.682 683.595 57.7093 683.645 56.7363C683.599 55.7567 683.769 54.7792 684.144 53.8729C684.518 52.9666 685.088 52.1538 685.812 51.4922C687.631 49.9318 689.797 48.8291 692.13 48.2762C694.927 47.5478 697.806 47.1847 700.697 47.1958C703.556 47.1773 706.401 47.5883 709.138 48.4152C711.447 49.0755 713.542 50.3329 715.21 52.0608C716.67 53.6277 717.377 55.6937 717.377 58.3789V59.5162C717.377 59.9351 717.544 60.3369 717.84 60.6331C718.136 60.9293 718.538 61.0957 718.957 61.0957H726.804C727.011 61.0966 727.217 61.0563 727.409 60.9773C727.601 60.8982 727.775 60.7818 727.922 60.635C728.069 60.4881 728.186 60.3136 728.265 60.1216C728.344 59.9296 728.384 59.7239 728.383 59.5162V58.1073C728.383 53.3623 727.05 49.3692 724.415 46.2228C721.677 43.0399 718.143 40.6414 714.174 39.2729C709.791 37.7207 705.17 36.9509 700.52 36.9984C695.858 36.9482 691.221 37.7048 686.816 39.2349C682.901 40.5525 679.396 42.8647 676.644 45.9449C674.025 49.0096 672.628 52.933 672.721 56.9636C672.645 60.0105 673.401 63.0204 674.907 65.67C676.372 68.1093 678.4 70.1629 680.82 71.6596C683.441 73.2861 686.264 74.5607 689.217 75.4505C692.529 76.464 695.907 77.2513 699.326 77.8071C705.966 78.957 711.04 80.3849 714.401 82.0592C717.364 83.525 718.824 85.926 718.824 89.3947C718.846 90.3425 718.674 91.2849 718.319 92.1639C717.964 93.043 717.432 93.8401 716.758 94.5061C715 96.1621 712.853 97.3485 710.515 97.9558C707.338 98.8365 704.051 99.2619 700.754 99.2194C695.017 99.2194 690.506 98.221 687.341 96.2624C684.358 94.4175 682.861 91.8966 682.747 88.6049V86.7094C682.748 86.5018 682.708 86.296 682.629 86.104C682.549 85.912 682.434 85.7375 682.287 85.5907C682.14 85.4438 681.965 85.3275 681.773 85.2484C681.581 85.1693 681.375 85.1291 681.167 85.1299H673.27C672.851 85.1299 672.449 85.2963 672.153 85.5925C671.857 85.8887 671.69 86.2905 671.69 86.7094V87.7519C671.685 88.1653 671.702 88.5786 671.741 88.9902Z" fill="black"/>
<path d="M1009.12 91.5934C1012.01 96.9852 1016.32 101.486 1021.57 104.609C1027.11 107.824 1033.42 109.465 1039.82 109.354C1046.65 109.354 1052.79 107.755 1058.07 104.609C1063.32 101.482 1067.62 96.9823 1070.5 91.5934C1073.54 85.8804 1075.08 79.4932 1074.99 73.0245C1075.1 66.5692 1073.55 60.1935 1070.5 54.506C1067.59 49.1795 1063.28 44.7536 1058.03 41.7118C1052.76 38.6349 1046.62 37.0742 1039.8 37.0742C1032.97 37.0742 1026.84 38.6349 1021.56 41.7118C1016.32 44.7555 1012.01 49.1811 1009.1 54.506C1006.05 60.1929 1004.5 66.5687 1004.6 73.0245C1004.52 79.4962 1006.07 85.8843 1009.12 91.5934V91.5934ZM1039.82 47.3665C1044.22 47.2762 1048.56 48.3881 1052.38 50.5825C1055.98 52.7334 1058.91 55.8357 1060.86 59.5479C1062.99 63.7122 1064.06 68.341 1063.96 73.0182C1064.04 77.7169 1062.98 82.3652 1060.86 86.5579C1058.92 90.3379 1055.98 93.5135 1052.36 95.7381C1048.55 97.9082 1044.23 99.0491 1039.84 99.0491C1035.45 99.0491 1031.13 97.9082 1027.31 95.7381C1023.68 93.5201 1020.74 90.3434 1018.8 86.5579C1016.67 82.366 1015.6 77.7175 1015.69 73.0182C1015.59 68.3401 1016.65 63.7106 1018.79 59.5479C1020.74 55.8308 1023.69 52.7292 1027.3 50.5888C1031.1 48.3972 1035.43 47.2832 1039.82 47.3665V47.3665Z" fill="black"/>
</svg>
