<svg width="34" height="35" fill="none" xmlns="http://www.w3.org/2000/svg"><path d="M31.571 0H2.421C1.085 0 0 1.133 0 2.523v29.954C0 33.867 1.085 35 2.421 35h29.15C32.907 35 34 33.867 34 32.477V2.523C34 1.133 32.907 0 31.571 0ZM10.276 30h-5.04V13.297h5.048V30h-.008Zm-2.52-18.984c-1.616 0-2.922-1.352-2.922-3.008S6.14 5 7.756 5c1.61 0 2.922 1.352 2.922 3.008 0 1.664-1.305 3.008-2.922 3.008ZM29.166 30h-5.04v-8.125c0-1.938-.038-4.43-2.618-4.43-2.626 0-3.028 2.11-3.028 4.29V30h-5.04V13.297h4.835v2.281h.068c.676-1.312 2.323-2.695 4.774-2.695 5.1 0 6.049 3.46 6.049 7.96V30Z" fill="#fff"/></svg>
