<svg width="1440" height="900" viewBox="0 0 1440 900" fill="none" xmlns="http://www.w3.org/2000/svg" version="1.1"
    xmlns:xlink="http://www.w3.org/1999/xlink">


<path d="M1267 478C1267 651.97 1125.97 793 952 793C778.03 793 637 651.97 637 478C637 304.03 778.03 163 952 163C1125.97 163 1267 304.03 1267 478Z" fill="red"/>

<path d="M952 881C1174.57 881 1355 700.571 1355 478C1355 255.429 1174.57 75 952 75C729.429 75 549 255.429 549 478C549 700.571 729.429 881 952 881ZM952 882C1175.12 882 1356 701.123 1356 478C1356 254.877 1175.12 74 952 74C728.877 74 548 254.877 548 478C548 701.123 728.877 882 952 882Z" stroke="lightgrey" stroke-width="2" fill="none" />

<circle r="250" fill="red">
    <animateMotion dur="10s" repeatCount="indefinite"
path="M952 881C1174.57 881 1355 700.571 1355 478C1355 255.429 1174.57 75 952 75C729.429 75 549 255.429 549 478C549 700.571 729.429 881 952 881ZM952 882C1175.12 882 1356 701.123 1356 478C1356 254.877 1175.12 74 952 74C728.877 74 548 254.877 548 478C548 701.123 728.877 882 952 882Z"  />
  </circle>

<path fill-rule="evenodd" clip-rule="evenodd" d="M952 1067C1277.3 1067 1541 803.296 1541 478C1541 152.704 1277.3 -111 952 -111C626.704 -111 363 152.704 363 478C363 803.296 626.704 1067 952 1067ZM952 1068C1277.85 1068 1542 803.848 1542 478C1542 152.152 1277.85 -112 952 -112C626.152 -112 362 152.152 362 478C362 803.848 626.152 1068 952 1068Z" fill="#C4C4C4"/>
<circle cx="555" cy="553" r="15" fill="#C4C4C4"/>
<circle cx="399" cy="272" r="30" fill="#C4C4C4">
</circle>
<!-- Cercle rouge qui sera déplacé le long du chemin. -->
  <circle cx="200" cy="" r="5" fill="red">

  </circle>

</svg>
