<svg width="140" height="140" viewBox="0 0 140 140" fill="none" xmlns="http://www.w3.org/2000/svg">
<path d="M138.75 70C138.75 108.108 107.858 139 69.75 139C31.6423 139 0.75 108.108 0.75 70C0.75 31.8923 31.6423 1 69.75 1C107.858 1 138.75 31.8923 138.75 70Z" stroke="white" stroke-width="2"/>
<path d="M46.6938 24L50.2372 42.1503L68.3875 45.6938L50.2372 49.2372L46.6938 67.3875L43.1503 49.2372L25 45.6938L43.1503 42.1503L46.6938 24Z" fill="white"/>
<path d="M75.6187 83.7383L79.6547 96.9461L92.8625 100.982L79.6547 105.018L75.6187 118.226L71.5828 105.018L58.375 100.982L71.5828 96.9461L75.6187 83.7383Z" fill="white"/>
<path d="M102.875 51.8125L103.906 61.907L114 62.9375L103.906 63.968L102.875 74.0625L101.844 63.968L91.75 62.9375L101.844 61.907L102.875 51.8125Z" fill="white"/>
<circle cx="31.0117" cy="81.8516" r="5.5625" fill="white"/>
<circle cx="86.743" cy="33.4578" r="7.23125" fill="white"/>
<circle cx="67.2758" cy="68.4984" r="2.225" fill="white"/>
<circle cx="103.987" cy="88.5258" r="2.225" fill="white"/>
<circle cx="45.0258" cy="101.873" r="2.225" fill="white"/>
</svg>
