<svg width="141" height="140" viewBox="0 0 141 140" fill="none" xmlns="http://www.w3.org/2000/svg">
<path d="M43.7032 26.0223C43.7534 25.6804 44.2466 25.6804 44.2968 26.0223L45.1195 31.6273C45.1387 31.7584 45.2416 31.8613 45.3727 31.8805L50.9777 32.7032C51.3196 32.7534 51.3196 33.2466 50.9777 33.2968L45.3727 34.1195C45.2416 34.1387 45.1387 34.2416 45.1195 34.3727L44.2968 39.9777C44.2466 40.3196 43.7534 40.3196 43.7032 39.9777L42.8805 34.3727C42.8613 34.2416 42.7584 34.1387 42.6273 34.1195L37.0223 33.2968C36.6804 33.2466 36.6804 32.7534 37.0223 32.7032L42.6273 31.8805C42.7584 31.8613 42.8613 31.7584 42.8805 31.6273L43.7032 26.0223Z" fill="#FFF8E7"/>
<path d="M84.4011 21.6741C84.4178 21.5601 84.5822 21.5601 84.5989 21.6741L85.0651 24.8504C85.0715 24.8941 85.1059 24.9285 85.1496 24.9349L88.3259 25.4011C88.4399 25.4178 88.4399 25.5822 88.3259 25.5989L85.1496 26.0651C85.1059 26.0715 85.0715 26.1059 85.0651 26.1496L84.5989 29.3259C84.5822 29.4399 84.4178 29.4399 84.4011 29.3259L83.9349 26.1496C83.9285 26.1059 83.8941 26.0715 83.8504 26.0651L80.6741 25.5989C80.5601 25.5822 80.5601 25.4178 80.6741 25.4011L83.8504 24.9349C83.8941 24.9285 83.9285 24.8941 83.9349 24.8504L84.4011 21.6741Z" fill="#FFF8E7"/>
<path d="M32.4438 78.8188C32.244 78.8188 32.0459 78.7669 31.8694 78.6656C31.6047 78.5134 31.4108 78.262 31.3312 77.9669L27.4738 63.6906C27.3078 63.0761 27.6713 62.4435 28.2859 62.2774L82.1022 47.7006C82.7148 47.5339 83.3496 47.8981 83.5153 48.5125L87.373 62.7888C87.4529 63.0838 87.412 63.3985 87.2598 63.6636C87.1072 63.9286 86.856 64.1223 86.5609 64.202L32.7442 78.7788C32.6455 78.8056 32.5445 78.8188 32.4438 78.8188ZM29.9997 64.202L33.2558 76.2531L84.8471 62.2775L81.5907 50.2263L29.9997 64.202Z" fill="#FFF8E7"/>
<path d="M91.0695 67.0533C90.5188 67.0533 89.9691 67.0076 89.4288 66.9157L86.6671 66.4458C86.2239 66.3704 85.8652 66.0441 85.7479 65.6103L80.6904 46.8924C80.5731 46.4584 80.7188 45.9958 81.0638 45.7076L83.2129 43.9108C84.2957 43.0058 85.588 42.3327 86.9505 41.9647L97.4852 39.1181C98.006 38.9776 98.5538 39.2163 98.8051 39.6928C102.535 46.7621 104.686 54.7203 105.023 62.7069C105.046 63.2453 104.693 63.7275 104.172 63.8681L93.6377 66.7147C92.8045 66.9399 91.9364 67.0533 91.0695 67.0533ZM87.7808 64.2971L89.8154 64.6433C90.8796 64.8242 91.9935 64.7707 93.0366 64.4895L102.673 61.8857C102.248 54.8542 100.362 47.8743 97.1883 41.5861L87.5514 44.1898C86.5089 44.4716 85.5199 44.9866 84.6913 45.6793L83.108 47.003L87.7808 64.2971Z" fill="#FFF8E7"/>
<path d="M21.2059 76.7094C21.0061 76.7094 20.8081 76.6574 20.6316 76.5561C20.3666 76.4039 20.173 76.1525 20.0934 75.8575L18.8077 71.0987C18.6418 70.4842 19.0053 69.8515 19.6198 69.6855L29.7719 66.9424C30.0662 66.8624 30.3811 66.9033 30.6466 67.0556C30.9117 67.2079 31.1053 67.4592 31.1849 67.7543L32.4705 72.513C32.6365 73.1276 32.273 73.7602 31.6585 73.9263L21.5065 76.6694C21.4076 76.6961 21.3067 76.7094 21.2059 76.7094ZM21.3334 71.6101L22.018 74.1436L29.9449 72.0017L29.2603 69.4682L21.3334 71.6101Z" fill="#FFF8E7"/>
<path d="M22.0626 79.886C21.5545 79.886 21.0893 79.5477 20.9506 79.0339L17.9504 67.9301C17.7843 67.3156 18.1479 66.6829 18.7624 66.5168C19.3752 66.3505 20.0094 66.7143 20.1754 67.3288L23.1758 78.4326C23.3418 79.0471 22.9783 79.6797 22.3637 79.8458C22.2632 79.8731 22.1619 79.886 22.0626 79.886Z" fill="#FFF8E7"/>
<path d="M48.9097 105.714C47.7305 105.714 46.6216 105.138 45.9432 104.174C45.2647 103.21 45.0977 101.971 45.4964 100.862L56.4678 70.6484C56.595 70.2982 56.8837 70.031 57.2427 69.9313L63.1582 68.288C63.574 68.1728 64.02 68.2992 64.3129 68.6163C64.6061 68.9334 64.6972 69.3878 64.5492 69.7934L52.321 103.319C51.8071 104.749 50.4357 105.714 48.9097 105.714ZM58.4318 71.9932L47.6644 101.644C47.5183 102.051 47.5777 102.491 47.8284 102.848C48.0794 103.205 48.4736 103.409 48.9097 103.409C49.4657 103.409 49.9654 103.058 50.1534 102.534L61.6158 71.1087L58.4318 71.9932Z" fill="#FFF8E7"/>
<path d="M79.3928 105.714C77.8669 105.714 76.4955 104.749 75.9797 103.313L63.7522 69.4608C63.6439 69.1612 63.6644 68.83 63.8094 68.5459C63.9539 68.262 64.2097 68.0507 64.5158 67.9622L69.0612 66.6476C69.6417 66.4785 70.2537 66.7888 70.4628 67.3562L82.8028 100.852C83.2048 101.971 83.0378 103.209 82.3593 104.173C81.6809 105.138 80.572 105.714 79.3928 105.714ZM66.3381 69.8347L78.1482 102.532C78.3371 103.057 78.8368 103.409 79.3928 103.409C79.8289 103.409 80.2232 103.204 80.4741 102.847C80.7248 102.49 80.7842 102.05 80.6368 101.64L68.671 69.1599L66.3381 69.8347Z" fill="#FFF8E7"/>
<path opacity="0.7" d="M88.7714 105.711H32.9045C32.2681 105.711 31.752 105.195 31.752 104.559C31.752 103.922 32.2681 103.406 32.9045 103.406H88.7714C89.4078 103.406 89.9239 103.922 89.9239 104.559C89.9239 105.195 89.4079 105.711 88.7714 105.711Z" fill="#FFF8E7"/>
</svg>
