<svg width="141" height="140" viewBox="0 0 141 140" fill="none" xmlns="http://www.w3.org/2000/svg">
<path d="M139.5 70C139.5 108.108 108.608 139 70.5 139C32.3923 139 1.5 108.108 1.5 70C1.5 31.8923 32.3923 1 70.5 1C108.608 1 139.5 31.8923 139.5 70Z" stroke="white" stroke-width="2"/>
<path d="M118.04 47.3398C118.296 47.3398 118.499 47.1362 118.499 46.8802C118.499 46.6243 118.296 46.4206 118.04 46.4206C117.786 46.4206 117.58 46.6262 117.58 46.8802C117.58 47.1343 117.786 47.3398 118.04 47.3398Z" fill="#FFF8E7" stroke="white" stroke-width="3"/>
<g opacity="0.7">
<mask id="path-3-inside-1_1050_330" fill="white">
<path d="M45 96.4999C45 97.3294 44.3286 98 43.4998 98C42.6723 98 42 97.3294 42 96.4999C42 95.6721 42.6723 95 43.4998 95C44.3286 95 45 95.6721 45 96.4999Z"/>
</mask>
<path d="M45 96.4999C45 97.3294 44.3286 98 43.4998 98C42.6723 98 42 97.3294 42 96.4999C42 95.6721 42.6723 95 43.4998 95C44.3286 95 45 95.6721 45 96.4999Z" fill="#FFF8E7"/>
<path d="M48 96.4999C48 98.9873 45.9844 101 43.4998 101V95C42.6728 95 42 95.6715 42 96.4999H48ZM43.4998 101C41.0171 101 39 98.988 39 96.4999H45C45 95.6708 44.3274 95 43.4998 95V101ZM39 96.4999C39 94.0151 41.0156 92 43.4998 92V98C44.3289 98 45 97.3291 45 96.4999H39ZM43.4998 92C45.986 92 48 94.0158 48 96.4999H42C42 97.3284 42.6712 98 43.4998 98V92Z" fill="white" mask="url(#path-3-inside-1_1050_330)"/>
</g>
<path d="M110.307 92.7188C110.425 91.921 111.575 91.921 111.693 92.7188L112.076 95.3328C112.121 95.6387 112.361 95.8789 112.667 95.9238L115.281 96.3074C116.079 96.4245 116.079 97.5755 115.281 97.6926L112.667 98.0762C112.361 98.1211 112.121 98.3613 112.076 98.6672L111.693 101.281C111.575 102.079 110.425 102.079 110.307 101.281L109.924 98.6672C109.879 98.3613 109.639 98.1211 109.333 98.0762L106.719 97.6926C105.921 97.5755 105.921 96.4245 106.719 96.3074L109.333 95.9238C109.639 95.8789 109.879 95.6387 109.924 95.3328L110.307 92.7188Z" fill="#FFF8E7"/>
<path d="M36.9977 29.5C37.8281 29.5 38.5 28.825 38.5 28.003C38.5 27.1731 37.8261 26.5 36.9977 26.5C36.1734 26.5 35.5 27.1706 35.5 28.003C35.5 28.8275 36.1715 29.5 36.9977 29.5Z" fill="#1A2841" stroke="white" stroke-width="3"/>
<path d="M71.4652 75.0384L71.488 75.0846L71.5103 75.1313L71.5322 75.1784L71.5536 75.226L71.5745 75.274L71.5949 75.3224L71.6148 75.3713L71.6342 75.4206L71.653 75.4703L71.6714 75.5204L71.6892 75.571L71.7065 75.6219L71.7233 75.6733L71.7395 75.725L71.7551 75.7771L71.7702 75.8296L71.7848 75.8825L71.7987 75.9358L71.8121 75.9894L71.8249 76.0433L71.8371 76.0976L71.8487 76.1523L71.8598 76.2073L71.8702 76.2626L71.88 76.3183L71.8892 76.3743L71.8977 76.4305L71.9057 76.4871L71.913 76.544L71.9197 76.6012L71.9257 76.6586L71.9311 76.7164L71.9358 76.7744L71.9399 76.8326L71.9433 76.8911L71.946 76.9499L71.9481 77.0089L71.9495 77.0681L71.9502 77.1276L71.9502 77.1873L71.9496 77.2472L71.9482 77.3072L71.9462 77.3675L71.9434 77.428L71.94 77.4886L71.9358 77.5494L71.9309 77.6104L71.9254 77.6715L71.919 77.7328L71.912 77.7942L71.9043 77.8557L71.8958 77.9174L71.8865 77.9791L71.8766 78.041L71.8659 78.1029L71.8545 78.165L71.8423 78.2271L71.8294 78.2893L71.8157 78.3515L71.8012 78.4138L71.7861 78.4762L71.7701 78.5386L71.7534 78.601L71.736 78.6634L71.7177 78.7258L71.6987 78.7882L71.679 78.8506L71.6585 78.913L71.6372 78.9754L71.6151 79.0377L71.5923 79.0999L71.5687 79.1621L71.5443 79.2243L71.5191 79.2864L71.4932 79.3483L71.4665 79.4102L71.439 79.472L71.4107 79.5337L71.3816 79.5952L71.3518 79.6567L71.3212 79.7179L71.2898 79.7791L71.2576 79.84L71.2247 79.9008L71.191 79.9614L71.1564 80.0218L71.1212 80.0821L71.0851 80.1421L71.0482 80.2019L71.0106 80.2615L70.9722 80.3208L70.933 80.3799L70.8931 80.4387L70.8524 80.4973L70.8109 80.5556L70.7686 80.6136L70.7256 80.6713L70.6818 80.7288L70.6372 80.7859L70.5919 80.8426L70.5458 80.8991L70.499 80.9552L70.4514 81.0109L70.403 81.0663L70.3539 81.1214L70.304 81.176L70.2534 81.2303L70.2021 81.2841L70.15 81.3376L70.0972 81.3906L70.0436 81.4432L69.9893 81.4954L69.9343 81.5471L69.8785 81.5984L69.8221 81.6492L69.7649 81.6995L69.707 81.7494L69.6484 81.7987L69.5891 81.8476L69.5291 81.896L69.4684 81.9438L69.407 81.9911L69.3449 82.0378L69.2821 82.0841L69.2187 82.1297L69.1545 82.1748L69.0897 82.2193L69.0243 82.2633L68.9582 82.3066L68.8914 82.3494L68.824 82.3915L68.756 82.4331L68.6873 82.474L68.6179 82.5142L68.548 82.5539L68.4774 82.5928L68.4063 82.6312L68.3345 82.6688L68.2621 82.7058L68.1891 82.7421L68.1156 82.7777L68.0414 82.8126L67.9667 82.8468L67.8914 82.8802L67.8156 82.913L67.7392 82.945L67.6622 82.9763L67.5847 83.0068L67.5067 83.0366L67.4282 83.0656L67.3491 83.0938L67.2696 83.1213L67.1895 83.148L67.109 83.1739L67.0279 83.1989L66.9464 83.2232L66.8644 83.2467L66.782 83.2693L66.699 83.2912L66.6157 83.3121L66.5319 83.3323L66.4477 83.3516L66.3631 83.37L66.278 83.3876L66.1926 83.4043L66.1067 83.4202L66.0205 83.4351L65.9339 83.4492L65.847 83.4624L65.7596 83.4747L65.672 83.4861L65.584 83.4966L65.4956 83.5061L65.407 83.5148L65.318 83.5225L65.2288 83.5293L65.1392 83.5351L65.0494 83.54L64.9593 83.544L64.8689 83.547L64.7783 83.5491L64.6875 83.5502L64.5964 83.5503L64.5051 83.5495L64.4136 83.5477L64.3219 83.5449L64.23 83.5411L64.1379 83.5364L64.0457 83.5306L63.9533 83.5239L63.8608 83.5162L63.7681 83.5075L63.6753 83.4977L63.5824 83.487L63.4894 83.4752L63.3963 83.4625L63.3031 83.4487L63.2099 83.4339L63.1165 83.418L63.0232 83.4012L62.9298 83.3833L62.8364 83.3644L62.743 83.3445L62.6495 83.3235L62.5561 83.3015L62.4627 83.2784L62.3693 83.2543L62.276 83.2292L62.1828 83.203L62.0896 83.1758L61.9964 83.1475L61.9034 83.1182L61.8105 83.0878L61.7177 83.0564L61.625 83.024L61.5324 82.9905L61.44 82.9559L61.3478 82.9203L61.2557 82.8836L61.1639 82.8459L61.0722 82.8071L60.9807 82.7673L60.8894 82.7265L60.7984 82.6845L60.7077 82.6416L60.6171 82.5975L60.5269 82.5525L60.4369 82.5064L60.3472 82.4592L60.2579 82.411L60.1688 82.3617L60.0801 82.3115L59.9917 82.2601L59.9037 82.2078L59.816 82.1543L59.7287 82.0999L59.6418 82.0444L59.5553 81.9879L59.4692 81.9304L59.3835 81.8718L59.2983 81.8123L59.2135 81.7517L59.1292 81.69L59.0453 81.6274L58.9619 81.5638L58.8791 81.4991L58.7967 81.4335L58.7149 81.3668L58.6335 81.2992L58.5528 81.2305L58.4726 81.1609L58.3929 81.0903L58.3138 81.0187L58.2354 80.9462L58.1575 80.8726L58.0802 80.7981L58.0036 80.7227L57.9276 80.6463L57.8522 80.5689L57.7775 80.4906L57.7035 80.4114L57.6301 80.3312L57.5575 80.2501L57.4855 80.168L57.4143 80.0851L57.3438 80.0012L57.274 79.9165L57.205 79.8308L57.1367 79.7443L57.0692 79.6569L57.0025 79.5685L56.9366 79.4794L56.8715 79.3893L56.8072 79.2984L56.7437 79.2067L56.6811 79.1141L56.6193 79.0207L56.5584 78.9264L56.4983 78.8313L56.4391 78.7354L56.3808 78.6388L56.3234 78.5413L56.2669 78.443L56.2113 78.344L56.1567 78.2442L56.103 78.1436L56.0502 78.0423L55.9984 77.9402L55.9475 77.8374L55.8977 77.7339L55.8488 77.6296L55.8009 77.5247L55.754 77.419L55.7082 77.3127L55.6633 77.2056L55.6195 77.098L55.5767 76.9896L55.535 76.8806L55.4944 76.771L55.4548 76.6607L55.4162 76.5499L55.3788 76.4384L55.3425 76.3263L55.3072 76.2136L55.2731 76.1004L55.24 75.9866L55.2082 75.8723L55.1774 75.7574L55.1478 75.6419L55.1193 75.526L55.092 75.4095L55.0658 75.2926L55.0408 75.1751L55.017 75.0572L54.9944 74.9388L54.9729 74.82L54.9527 74.7008L54.9336 74.5811L54.9158 74.461L54.8992 74.3405L54.8838 74.2196L54.8696 74.0983L54.8567 73.9767L54.845 73.8547L54.8346 73.7324L54.8254 73.6097L54.8174 73.4868L54.8108 73.3635L54.8054 73.2399L54.8013 73.1161L54.7984 72.992L54.7968 72.8677L54.7966 72.7431L54.7976 72.6183L54.7999 72.4933L54.8035 72.3681L54.8084 72.2427L54.8146 72.1172L54.8222 71.9915L54.831 71.8656L54.8412 71.7396L54.8527 71.6136L54.8656 71.4874L54.8797 71.3611L54.8952 71.2348L54.912 71.1084L54.9302 70.9819L54.9497 70.8554L54.9706 70.7289L54.9928 70.6024L55.0163 70.476L55.0412 70.3495L55.0675 70.2231L55.0951 70.0968L55.124 69.9705L55.1543 69.8443L55.186 69.7182L55.219 69.5922L55.2534 69.4663L55.2892 69.3406L55.3263 69.215L55.3647 69.0897L55.4046 68.9645L55.4458 68.8395L55.4883 68.7147L55.5322 68.5901L55.5775 68.4658L55.6242 68.3418L55.6722 68.218L55.7215 68.0945L55.7722 67.9714L55.8243 67.8485L55.8777 67.726L55.9325 67.6038L55.9886 67.482L56.0461 67.3605L56.1049 67.2395L56.1651 67.1189L56.2266 66.9987L56.2895 66.8789L56.3537 66.7596L56.4192 66.6407L56.4861 66.5223L56.5543 66.4045L56.6238 66.2871L56.6947 66.1703L56.7668 66.054L56.8403 65.9382L56.9151 65.8231L56.9912 65.7085L57.0686 65.5945L57.1473 65.4811L57.2273 65.3684L57.3086 65.2563L57.3912 65.1448L57.4751 65.034L57.5602 64.924L57.6466 64.8146L57.7342 64.7059L57.8232 64.598L57.9133 64.4908L58.0048 64.3843L58.0974 64.2786L58.1913 64.1738L58.2864 64.0697L58.3828 63.9664L58.4803 63.864L58.5791 63.7624L58.679 63.6616L58.7802 63.5617L58.8825 63.4628L58.986 63.3647L59.0907 63.2675L59.1966 63.1712L59.3036 63.0759L59.4117 62.9815L59.521 62.8881L59.6314 62.7957L59.7429 62.7042L59.8556 62.6138L59.9693 62.5244L60.0841 62.436L60.2001 62.3487L60.3171 62.2624L60.4351 62.1772L60.5542 62.093L60.6744 62.01L60.7956 61.928L60.9178 61.8472L61.041 61.7675L61.1652 61.689L61.2905 61.6116L61.4167 61.5353L61.5438 61.4603L61.672 61.3864L61.8011 61.3138L61.9311 61.2423L62.062 61.1721L62.1939 61.1031L62.3267 61.0354L62.4604 60.9689L62.5949 60.9037L62.7303 60.8398L62.8666 60.7772L63.0037 60.7159L63.1416 60.6558L63.2804 60.5972L63.4199 60.5398L63.5603 60.4838L63.7014 60.4291L63.8433 60.3758L63.986 60.3239L64.1294 60.2734L64.2735 60.2242L64.4183 60.1765L64.5638 60.1301L64.7101 60.0852L64.8569 60.0418L65.0045 59.9997L65.1527 59.9591L65.3015 59.92L65.4509 59.8823L65.6009 59.8461L65.7515 59.8114L65.9027 59.7782L66.0544 59.7464L66.2067 59.7162L66.3595 59.6875L66.5128 59.6603L66.6666 59.6346L66.8209 59.6105L66.9757 59.5879L67.1309 59.5669L67.2865 59.5474L67.4426 59.5295L67.599 59.5131L67.7559 59.4983L67.9131 59.4851L68.0706 59.4735L68.2285 59.4635L68.3867 59.4551L68.5453 59.4483L68.7041 59.443L68.8632 59.4394L69.0225 59.4375L69.1821 59.4371L69.3419 59.4384L69.5019 59.4413L69.6622 59.4458L69.8225 59.452L69.9831 59.4598L70.1437 59.4693L70.3045 59.4804L70.4654 59.4932L70.6264 59.5076L70.7875 59.5237L70.9486 59.5415L71.1098 59.5609L71.2709 59.582L71.4321 59.6048L71.5933 59.6292L71.7544 59.6554L71.9155 59.6832L72.0765 59.7126L72.2374 59.7438L72.3982 59.7766L72.5589 59.8111L72.7195 59.8473L72.8799 59.8852L73.0401 59.9248L73.2001 59.9661L73.36 60.009L73.5196 60.0536L73.6789 60.1L73.838 60.148L73.9968 60.1976L74.1553 60.249L74.3135 60.3021L74.4714 60.3568L74.6289 60.4132L74.786 60.4713L74.9428 60.531L75.0991 60.5925L75.255 60.6556L75.4105 60.7204L75.5655 60.7868L75.7201 60.8549L75.8741 60.9247L76.0277 60.9961L76.1807 61.0692L76.3331 61.144L76.485 61.2203L76.6363 61.2984L76.787 61.378L76.9371 61.4594L77.0865 61.5423L77.2353 61.6269L77.3834 61.713L77.5309 61.8009L77.6776 61.8903L77.8236 61.9813L77.9688 62.0739L78.1133 62.1681L78.257 62.2639L78.3999 62.3613L78.542 62.4603L78.6833 62.5609L78.8237 62.663L78.9633 62.7666L79.1019 62.8718L79.2397 62.9786L79.3766 63.0869L79.5125 63.1967L79.6475 63.308L79.7815 63.4209L79.9145 63.5352L80.0465 63.6511L80.1775 63.7684L80.3075 63.8872L80.4364 64.0075L80.5643 64.1292L80.691 64.2524L80.8167 64.377L80.9412 64.5031L81.0647 64.6306L81.1869 64.7595L81.308 64.8898L81.428 65.0215L81.5467 65.1545L81.6642 65.289L81.7805 65.4248L81.8956 65.5619L82.0094 65.7004L82.1219 65.8402L82.2331 65.9813L82.3431 66.1237L82.4517 66.2674L82.5589 66.4124L82.6649 66.5587L82.7694 66.7062L82.8726 66.8549L82.9744 67.0049L83.0748 67.1561L83.1738 67.3085L83.2713 67.462L83.3674 67.6168L83.4621 67.7727L83.5552 67.9298L83.6469 68.088L83.7371 68.2473L83.8257 68.4077L83.9128 68.5692L83.9984 68.7318L84.0824 68.8955L84.1649 69.0602L84.2457 69.2259L84.325 69.3926L84.4027 69.5604L84.4788 69.7291L84.5532 69.8988L84.626 70.0695L84.6971 70.2411L84.7666 70.4136L84.8344 70.5871L84.9005 70.7614L84.9649 70.9366L85.0276 71.1127L85.0886 71.2896L85.1479 71.4673L85.2054 71.6458L85.2612 71.8252L85.3152 72.0053L85.3674 72.1861L85.4179 72.3677L85.4665 72.55L85.5134 72.7331L85.5584 72.9168L85.6017 73.1011L85.6431 73.2862L85.6827 73.4718L85.7204 73.6581L85.7563 73.845L85.7903 74.0325L85.8224 74.2205L85.8527 74.409L85.8811 74.5981L85.9076 74.7877L85.9322 74.9778L85.9549 75.1683L85.9756 75.3593L85.9945 75.5507L86.0114 75.7425L86.0264 75.9347L86.0395 76.1273L86.0506 76.3202L86.0598 76.5135L86.067 76.707L86.0722 76.9009L86.0755 77.095L86.0768 77.2894L86.0762 77.484L86.0735 77.6788L86.0689 77.8738L86.0623 78.069L86.0537 78.2644L86.0431 78.4598L86.0305 78.6554L86.0159 78.8511L85.9993 79.0468L85.9806 79.2426L85.96 79.4384L85.9374 79.6343L85.9127 79.8301L85.886 80.0258L85.8573 80.2216L85.8266 80.4172L85.7939 80.6128L85.7591 80.8082L85.7223 81.0035L85.6835 81.1987L85.6426 81.3936L85.5998 81.5884L85.5549 81.7829L85.5079 81.9772L85.459 82.1713L85.408 82.365L85.355 82.5585L85.3 82.7516L85.2429 82.9444L85.1839 83.1368L85.1228 83.3288L85.0597 83.5204L84.9946 83.7116L84.9275 83.9023L84.8583 84.0926L84.7872 84.2823L84.714 84.4715L84.6389 84.6603L84.5617 84.8484L84.4826 85.036L84.4014 85.2229L84.3183 85.4093L84.2332 85.595L84.1461 85.78L84.0571 85.9644L83.9661 86.148L83.8731 86.3309L83.7781 86.5131L83.6812 86.6945L83.5824 86.8752L83.4816 87.055L83.3789 87.234L83.2743 87.4121L83.1678 87.5894L83.0593 87.7657L82.9489 87.9412L82.8367 88.1157L82.7225 88.2893L82.6065 88.4619L82.4886 88.6335L82.3688 88.8042L82.2471 88.9737L82.1237 89.1422L81.9983 89.3097L81.8712 89.476L81.7422 89.6413L81.6114 89.8054L81.4788 89.9683L81.3445 90.1301L81.2083 90.2907L81.0704 90.4501L80.9307 90.6082L80.7892 90.7651L80.6461 90.9208L80.5012 91.0751L80.3545 91.2282L80.2062 91.3799L80.0562 91.5302L79.9045 91.6793L79.7511 91.8269L79.5961 91.9731L79.4394 92.1179L79.2812 92.2613L79.1212 92.4032L78.9597 92.5437L78.7966 92.6827L78.632 92.8201L78.4657 92.956L78.2979 93.0904L78.1286 93.2233L77.9578 93.3545L77.7854 93.4842L77.6116 93.6122L77.4363 93.7386L77.2595 93.8634L77.0813 93.9865L76.9017 94.108L76.7207 94.2277L76.5382 94.3458L76.3544 94.4621L76.1692 94.5767L75.9827 94.6895L75.7948 94.8005L75.6056 94.9098L75.4152 95.0172L75.2234 95.1229L75.0304 95.2267L74.8361 95.3286L74.6406 95.4287L74.4439 95.527L74.246 95.6233L74.047 95.7177L73.8468 95.8102L73.6454 95.9008L73.443 95.9895L73.2394 96.0761L73.0347 96.1609L72.829 96.2436L72.6223 96.3243L72.4145 96.403L72.2058 96.4797L71.996 96.5544L71.7853 96.627L71.5737 96.6976L71.3611 96.7661L71.1476 96.8325L70.9332 96.8968L70.718 96.9591L70.502 97.0192L70.2851 97.0772L70.0674 97.133L69.849 97.1868L69.6298 97.2383L69.4098 97.2877L69.1892 97.3349L68.9678 97.38L68.7458 97.4228L68.5231 97.4635L68.2998 97.5019L68.076 97.5382L67.8515 97.5722L67.6264 97.6039L67.4009 97.6335L67.1748 97.6607L66.9482 97.6858L66.7212 97.7085L66.4937 97.729L66.2657 97.7472L66.0374 97.7632L65.8087 97.7768L65.5797 97.7882L65.3503 97.7972L65.1206 97.8039L64.8906 97.8084L64.6603 97.8105L64.4299 97.8103L64.1992 97.8078L63.9683 97.8029L63.7372 97.7957L63.506 97.7862L63.2747 97.7743L63.0433 97.7601L62.8118 97.7435L62.5802 97.7246L62.3487 97.7033L62.1171 97.6797L61.8855 97.6537L61.654 97.6253L61.4226 97.5946L61.1913 97.5615L60.9601 97.5261L60.729 97.4883L60.4981 97.4481L60.2674 97.4056L60.0369 97.3607L59.8067 97.3134L59.5767 97.2638L59.347 97.2118L59.1176 97.1574L58.8886 97.1007L58.6599 97.0416L58.4316 96.9801L58.2037 96.9163L57.9763 96.8502L57.7493 96.7816L57.5228 96.7108L57.2969 96.6375L57.0714 96.562L56.8465 96.4841L56.6222 96.4038L56.3985 96.3212L56.1755 96.2363L55.9531 96.1491L55.7313 96.0595L55.5103 95.9676L55.29 95.8734L55.0705 95.777L54.8517 95.6782L54.6338 95.5771L54.4166 95.4737L54.2004 95.368L53.9849 95.2601L53.7704 95.1499L53.5569 95.0374L53.3442 94.9227L53.1325 94.8057L52.9219 94.6865L52.7122 94.5651L52.5036 94.4414L52.2961 94.3155L52.0896 94.1874L51.8842 94.0572L51.68 93.9247L51.477 93.7901L51.2751 93.6533L51.0744 93.5143L50.875 93.3732L50.6768 93.23L50.4799 93.0846L50.2842 92.9371L50.0899 92.7875L49.897 92.6359L49.7054 92.4821L49.5152 92.3263L49.3264 92.1684L49.139 92.0085L48.9531 91.8466L48.7686 91.6826L48.5857 91.5167L48.4042 91.3487L48.2243 91.1788L48.046 91.0069L47.8693 90.8331L47.6941 90.6573L47.5206 90.4796L47.3487 90.3L47.1785 90.1186L47.01 89.9352L46.8432 89.75L46.6781 89.563L46.5148 89.3741L46.3532 89.1834L46.1935 88.9909L46.0355 88.7967L45.8793 88.6007L45.7251 88.4029L45.5726 88.2035L45.4221 88.0023L45.2735 87.7994L45.1267 87.5949L44.982 87.3887L44.8392 87.1808L44.6983 86.9714L44.5595 86.7603L44.4227 86.5477L44.2879 86.3335L44.1552 86.1178L44.0245 85.9005L43.8959 85.6818L43.7694 85.4616L43.6451 85.2399L43.5229 85.0167L43.4028 84.7922L43.2849 84.5662L43.1692 84.3389L43.0556 84.1102L42.9443 83.8802L42.8353 83.6488L42.7284 83.4162L42.6239 83.1823L42.5216 82.9471L42.4216 82.7108L42.3239 82.4732L42.2285 82.2344L42.1355 81.9944L42.0448 81.7534L41.9565 81.5112L41.8705 81.2679L41.7869 81.0235L41.7058 80.7782L41.627 80.5317L41.5507 80.2843L41.4768 80.0359L41.4053 79.7866L41.3364 79.5363L41.2698 79.2851L41.2058 79.0331L41.1443 78.7802L41.0853 78.5264L41.0287 78.2719L40.9747 78.0166L40.9233 77.7605L40.8744 77.5037L40.828 77.2462L40.7842 76.988L40.743 76.7292L40.7044 76.4697L40.6683 76.2096L40.6349 75.949L40.604 75.6878L40.5758 75.4261L40.5502 75.1639L40.5272 74.9012L40.5069 74.638L40.4892 74.3745L40.4741 74.1105L40.4617 73.8462L40.452 73.5815L40.4449 73.3166L40.4405 73.0513L40.4388 72.7858L40.4398 72.52L40.4434 72.2541L40.4497 71.9879L40.4588 71.7216L40.4705 71.4552L40.4849 71.1887L40.502 70.9221L40.5219 70.6555L40.5444 70.3889L40.5697 70.1223L40.5977 69.8557L40.6283 69.5892L40.6617 69.3227L40.6979 69.0564L40.7367 68.7903L40.7783 68.5243L40.8225 68.2585L40.8695 67.993L40.9193 67.7277L40.9717 67.4627L41.0269 67.1981L41.0847 66.9337L41.1453 66.6698L41.2086 66.4062L41.2746 66.1431L41.3434 65.8804L41.4148 65.6182L41.4889 65.3566L41.5658 65.0954L41.6453 64.8348L41.7275 64.5749L41.8124 64.3155L41.9001 64.0568L41.9903 63.7988L42.0833 63.5415L42.1789 63.2849L42.2772 63.029L42.3782 62.774L42.4818 62.5198L42.5881 62.2664L42.697 62.0139L42.8085 61.7622L42.9227 61.5115L43.0395 61.2618L43.1589 61.013L43.2809 60.7653L43.4055 60.5186L43.5327 60.2729L43.6625 60.0283L43.7948 59.7849L43.9297 59.5426L44.0672 59.3014L44.2072 59.0615L44.3497 58.8228L44.4948 58.5853L44.6423 58.3491L44.7924 58.1142L44.9449 57.8806L45.1 57.6484L45.2574 57.4176L45.4174 57.1881L45.5797 56.9601L45.7445 56.7336L45.9118 56.5085L46.0814 56.285L46.2534 56.063L46.4277 55.8425L46.6045 55.6236L46.7836 55.4064L46.965 55.1907L47.1487 54.9768L47.3347 54.7645L47.523 54.5539L47.7136 54.3451L47.9064 54.138L48.1015 53.9327L48.2988 53.7292L48.4982 53.5275L48.6999 53.3277L48.9038 53.1298L49.1098 52.9337L49.3179 52.7396L49.5281 52.5474L49.7405 52.3572L49.9549 52.169L50.1714 51.9828L50.3899 51.7987L50.6105 51.6166L50.833 51.4365L51.0576 51.2586L51.2841 51.0828L51.5125 50.9092L51.7429 50.7377L51.9752 50.5684L52.2093 50.4013L52.4453 50.2365L52.6832 50.0738L52.9229 49.9135L53.1643 49.7555L53.4076 49.5997L53.6526 49.4463L53.8993 49.2952L54.1477 49.1465L54.3979 49.0002L54.6496 48.8563L54.9031 48.7149L55.1581 48.5758L55.4147 48.4393L55.6729 48.3052L55.9327 48.1736L56.1939 48.0445L56.4567 47.9179L56.7209 47.7939L56.9866 47.6725L57.2536 47.5536L57.5221 47.4373L57.792 47.3237L58.0632 47.2127L58.3357 47.1043L58.6095 46.9986L58.8846 46.8955L59.1609 46.7951L59.4384 46.6975L59.7172 46.6026L59.9971 46.5104L60.2781 46.4209L60.5602 46.3342L60.8434 46.2503L61.1276 46.1691L61.4129 46.0908L61.6992 46.0152L61.9865 45.9425L62.2746 45.8727L62.5637 45.8056L62.8537 45.7414L63.1446 45.6801L63.4362 45.6217L63.7287 45.5662L64.022 45.5135L64.3159 45.4638L64.6106 45.417L64.906 45.3731L65.2021 45.3321L65.4987 45.2941L65.796 45.259L66.0938 45.227L66.3922 45.1978L66.691 45.1717L66.9904 45.1485L67.2902 45.1283L67.5904 45.1112L67.891 45.097L68.192 45.0858L68.4932 45.0777L68.7948 45.0726L69.0967 45.0705L69.3988 45.0714L69.701 45.0754L70.0035 45.0824L70.3061 45.0924L70.6088 45.1055L70.9116 45.1217L71.2145 45.1409L71.5173 45.1631L71.8202 45.1885L72.123 45.2168L72.4258 45.2483L72.7284 45.2828L73.0309 45.3203L73.3333 45.361L73.6354 45.4047L73.9373 45.4514L74.239 45.5012L74.5403 45.5541L74.8414 45.6101L75.1421 45.6691L75.4424 45.7312L75.7423 45.7963L76.0417 45.8645L76.3407 45.9358L76.6391 46.0101L76.937 46.0875L77.2344 46.1679L77.5311 46.2513L77.8272 46.3378L78.1226 46.4273L78.4174 46.5198L78.7114 46.6154L79.0046 46.714L79.2971 46.8156L79.5887 46.9202L79.8795 47.0278L80.1694 47.1384L80.4583 47.252L80.7464 47.3686L81.0334 47.4881L81.3195 47.6107L81.6045 47.7361L81.8884 47.8645L82.1713 47.9959L82.453 48.1302L82.7335 48.2674L83.0129 48.4075L83.291 48.5505L83.5679 48.6964L83.8435 48.8452L84.1178 48.9969L84.3908 49.1514L84.6623 49.3088L84.9325 49.469L85.2013 49.632L85.4686 49.7978L85.7343 49.9665L85.9986 50.1379L86.2614 50.312L86.5225 50.489L86.7821 50.6687L87.04 50.8511L87.2962 51.0362L87.5508 51.224L87.8036 51.4145L88.0547 51.6077L88.304 51.8035L88.5515 52.0019L88.7971 52.203L89.0409 52.4067L89.2828 52.6129L89.5228 52.8218L89.7609 53.0331L89.997 53.2471L90.2311 53.4635L90.4631 53.6824L90.6931 53.9038L90.9211 54.1276L91.1469 54.3539L91.3706 54.5826L91.5921 54.8137L91.8115 55.0472L92.0287 55.283L92.2436 55.5212L92.4562 55.7617L92.6666 56.0045L92.8747 56.2496L93.0804 56.4969L93.2838 56.7464L93.4848 56.9982L93.6834 57.2521L93.8796 57.5082L94.0733 57.7664L94.2646 58.0268L94.4534 58.2892L94.6396 58.5537L94.8233 58.8203L95.0044 59.0888L95.1829 59.3594L95.3589 59.6319L95.5322 59.9064L95.7028 60.1828L95.8708 60.4611L96.0361 60.7413L96.1986 61.0233L96.3585 61.3071L96.5155 61.5927L96.6698 61.8801L96.8213 62.1692L96.97 62.46L97.1159 62.7525L97.2589 63.0467L97.399 63.3425L97.5363 63.6399L97.6706 63.9388L97.802 64.2393L97.9305 64.5413L98.056 64.8448L98.1785 65.1498L98.2981 65.4561L98.4146 65.7639L98.5281 66.0731L98.6386 66.3835L98.746 66.6953L98.8503 67.0084L98.9516 67.3227L99.0497 67.6383L99.1448 67.955L99.2367 68.2729L99.3254 68.5919L99.411 68.912L99.4935 69.2332L99.5727 69.5554L99.6488 69.8786L99.7216 70.2028L99.7912 70.5279L99.8576 70.8539L99.9208 71.1808L99.9807 71.5086L100.037 71.8371L100.091 72.1664L100.141 72.4965L100.188 72.8273L100.231 73.1588L100.271 73.4909L100.308 73.8236L100.342 74.1569L100.372 74.4908L100.399 74.8251L100.422 75.16L100.442 75.4953L100.459 75.831L100.472 76.1671L100.482 76.5035L100.489 76.8403L100.492 77.1773L100.492 77.5146L100.489 77.8521L100.482 78.1897L100.471 78.5276L100.458 78.8655L100.441 79.2035L100.42 79.5415L100.396 79.8795L100.369 80.2175L100.338 80.5555L100.303 80.8933L100.266 81.231L100.225 81.5686L100.18 81.9059L100.132 82.243L100.081 82.5799L100.026 82.9164L99.9677 83.2526L99.9061 83.5884L99.841 83.9238L99.7725 84.2588L99.7006 84.5933L99.6253 84.9272L99.5465 85.2606L99.4644 85.5935L99.3789 85.9257L99.2899 86.2573L99.1976 86.5881L99.1019 86.9183L99.0028 87.2477L98.9003 87.5763L98.7944 87.9041L98.6852 88.231L98.5726 88.557L98.4567 88.8821L98.3374 89.2063L98.2148 89.5294L98.0888 89.8515L97.9595 90.1725L97.827 90.4925L97.6911 90.8113L97.5519 91.1289L97.4094 91.4454L97.2637 91.7606L97.1147 92.0745L96.9625 92.3871L96.807 92.6984L96.6483 93.0083L96.4863 93.3168L96.3212 93.6239L96.1528 93.9295L95.9813 94.2336L95.8067 94.5362L95.6288 94.8372L95.4479 95.1366L95.2638 95.4344L95.0766 95.7305L94.8863 96.0249L94.6929 96.3176L94.4964 96.6085L94.2969 96.8976L94.0944 97.1849L93.8889 97.4703L93.6804 97.7538L93.4688 98.0355L93.2544 98.3151L93.0369 98.5928L92.8166 98.8685L92.5933 99.1421L92.3672 99.4137L92.1382 99.6831L91.9063 99.9504L91.6716 100.216L91.4341 100.479L91.1938 100.739L90.9508 100.998L90.705 101.254L90.4564 101.508L90.2052 101.759L89.9513 102.008L89.6947 102.255L89.4355 102.5L89.1736 102.741L88.9092 102.981L88.6422 103.218L88.3727 103.452L88.1006 103.684L87.8261 103.913L87.5491 104.14L87.2696 104.364L86.9878 104.585L86.7035 104.803L86.4168 105.019L86.1279 105.232L85.8366 105.443L85.543 105.65L85.2471 105.855L84.949 106.057L84.6487 106.256L84.3463 106.452L84.0416 106.645L83.7349 106.835L83.4261 107.023L83.1152 107.207L82.8022 107.388L82.4873 107.566L82.1703 107.742L81.8514 107.914L81.5307 108.083L81.208 108.249L80.8834 108.411L80.557 108.571L80.2289 108.728L79.8989 108.881L79.5673 109.031L79.2339 109.178L78.8989 109.321L78.5622 109.461L78.2239 109.598L77.884 109.732L77.5426 109.862L77.1997 109.989L76.8553 110.113L76.5095 110.233L76.1623 110.35L75.8136 110.463L75.4637 110.573L75.1124 110.68L74.7599 110.783L74.4061 110.882L74.0511 110.978L73.695 111.071L73.3377 111.16L72.9793 111.245L72.6198 111.327L72.2593 111.406L71.8978 111.481L71.5354 111.552L71.172 111.62L70.8077 111.684L70.4426 111.744L70.0767 111.801L69.71 111.854L69.3425 111.904L68.9743 111.95L68.6055 111.992L68.236 112.031L67.866 112.066L67.4953 112.097L67.1242 112.124L66.7525 112.148L66.3804 112.168L66.0079 112.184L65.635 112.197L65.2618 112.206L64.8883 112.211L64.5145 112.213L64.1405 112.21L63.7663 112.204L63.3919 112.194L63.0175 112.181L62.6429 112.164L62.2684 112.142L61.8938 112.118L61.5193 112.089L61.1448 112.056L60.7705 112.02L60.3963 111.98L60.0223 111.937L59.6485 111.889L59.2751 111.838L58.9019 111.783L58.529 111.724L58.1566 111.661L57.7845 111.595L57.413 111.525L57.0419 111.451L56.6714 111.373L56.3014 111.292L55.932 111.207L55.5633 111.118L55.1953 111.025L54.8281 110.929L54.4615 110.829L54.0958 110.725L53.731 110.617L53.367 110.506L53.0039 110.391L52.6418 110.272L52.2807 110.15L51.9206 110.024L51.5616 109.894L51.2036 109.761L50.8469 109.623L50.4913 109.483L50.1369 109.338L49.7838 109.19L49.432 109.039L49.0816 108.883L48.7324 108.725L48.3847 108.562L48.0385 108.396L47.6937 108.227L47.3505 108.053L47.0087 107.877L46.6686 107.697L46.3301 107.513L45.9933 107.326L45.6582 107.135L45.3248 106.941L44.9932 106.743L44.6634 106.542L44.3354 106.338L44.0093 106.13L43.6851 105.919L43.3629 105.704L43.0427 105.486L42.7244 105.265L42.4083 105.041L42.0942 104.813L41.7822 104.582L41.4724 104.347L41.1648 104.11L40.8594 103.869L40.5562 103.625L40.2554 103.378L39.9569 103.128L39.6607 102.874L39.3669 102.618L39.0756 102.358L38.7867 102.095L38.5003 101.83L38.2164 101.561L37.935 101.289L37.6563 101.014L37.3801 100.737L37.1066 100.456L36.8358 100.173L36.5677 99.8866L36.3023 99.5974L36.0397 99.3055L35.7799 99.0107L35.5229 98.7132L35.2687 98.413L35.0175 98.1101L34.7691 97.8045L34.5237 97.4962L34.2813 97.1853L34.0419 96.8718L33.8055 96.5557L33.5721 96.2372L33.3418 95.9161L33.1147 95.5925L32.8906 95.2665L32.6698 94.938L32.4521 94.6072L32.2376 94.274L32.0264 93.9385L31.8184 93.6007L31.6137 93.2606L31.4124 92.9183L31.2143 92.5738L31.0197 92.2272L30.8284 91.8784L30.6405 91.5275L30.4561 91.1745L30.2751 90.8195L30.0975 90.4625L29.9235 90.1036L29.753 89.7427L29.5861 89.3799L29.4226 89.0152L29.2628 88.6487L29.1066 88.2804L28.954 87.9104L28.8051 87.5387L28.6598 87.1652L28.5182 86.7901L28.3802 86.4134L28.2461 86.0351L28.1156 85.6553L27.9889 85.2739L27.8659 84.8911L27.7468 84.5069L27.6314 84.1213L27.5199 83.7343L27.4122 83.346L27.3084 82.9564L27.2084 82.5656L27.1123 82.1735L27.0201 81.7803L26.9317 81.386L26.8474 80.9906L26.7669 80.5941L26.6904 80.1967L26.6179 79.7982L26.5493 79.3988L26.4847 78.9986L26.4241 78.5974L26.3675 78.1955L26.3149 77.7928L26.2663 77.3893L26.2218 76.9852L26.1813 76.5804L26.1448 76.175L26.1125 75.769L26.0841 75.3625L26.0599 74.9555L26.0397 74.548L26.0236 74.1401L26.0117 73.7319L26.0038 73.3233L26 72.9145L26.0003 72.5054L26.0048 72.096L26.0133 71.6866L26.026 71.277L26.0428 70.8673L26.0638 70.4576L26.0888 70.0478L26.118 69.6382L26.1514 69.2286L26.1889 68.8191L26.2305 68.4098L26.2762 68.0007L26.3261 67.5919L26.3801 67.1833L26.4383 66.7751L26.5006 66.3673L26.567 65.9599L26.6375 65.5529L26.7122 65.1464L26.791 64.7405L26.874 64.3352L26.961 63.9305L27.0522 63.5264L27.1474 63.1231L27.2468 62.7205L27.3503 62.3188L27.4578 61.9178L27.5695 61.5177L27.6852 61.1186L27.805 60.7204L27.9289 60.3232L28.0568 59.927L28.1888 59.5319L28.3248 59.138L28.4648 58.7452L28.6089 58.3536L28.7569 57.9633L28.909 57.5743L29.065 57.1865L29.2251 56.8002L29.389 56.4153L29.557 56.0318L29.7289 55.6498L29.9047 55.2693L30.0844 54.8904L30.268 54.5131L30.4555 54.1375L30.6469 53.7636L30.8421 53.3914L31.0412 53.0209L31.2441 52.6523L31.4508 52.2855L31.6613 51.9207L31.8756 51.5577L32.0936 51.1967L32.3153 50.8377L32.5408 50.4808L32.77 50.1259L33.0028 49.7732L33.2393 49.4226L33.4795 49.0742L33.7233 48.7281L33.9707 48.3842L34.2216 48.0426L34.4761 47.7034L34.7342 47.3665L34.9958 47.0321L35.2608 46.7001L35.5293 46.3706L35.8013 46.0437L36.0767 45.7193L36.3555 45.3975L36.6376 45.0784L36.9231 44.7619L37.212 44.4481L37.5041 44.1371L37.7995 43.8288L38.0981 43.5233L38.3999 43.2207L38.705 42.921L39.0132 42.6242L39.3245 42.3303L39.639 42.0393L39.9565 41.7514L40.277 41.4666L40.6006 41.1848L40.9272 40.9061L41.2567 40.6305L41.5892 40.3581L41.9246 40.0889L42.2628 39.823L42.6039 39.5603L42.9478 39.3009L43.2944 39.0448L43.6438 38.792L43.9959 38.5426L44.3507 38.2967L44.7081 38.0541L45.0682 37.8151L45.4308 37.5795L45.7959 37.3474L46.1636 37.1189L46.5337 36.894L46.9063 36.6726L47.2813 36.4549L47.6586 36.2408L48.0383 36.0304L48.4203 35.8237L48.8045 35.6208L49.191 35.4215L49.5796 35.2261L49.9705 35.0345L50.3634 34.8466L50.7584 34.6627L51.1554 34.4825L51.5544 34.3063L51.9554 34.134L52.3583 33.9656L52.7631 33.8012L53.1698 33.6408L53.5782 33.4843L53.9884 33.3319L54.4004 33.1835L54.814 33.0391L55.2293 32.8989L55.6462 32.7627L56.0646 32.6306L56.4846 32.5027L56.9061 32.3789L57.329 32.2592L57.7533 32.1438L58.179 32.0325L58.606 31.9255L59.0342 31.8226L59.4637 31.724L59.8944 31.6297L60.3263 31.5396L60.7592 31.4539L61.1933 31.3724L61.6283 31.2952L62.0643 31.2223L62.5013 31.1538L62.9392 31.0896L63.3779 31.0298L63.8174 30.9743L64.2577 30.9232L64.6987 30.8765L65.1404 30.8342L65.5827 30.7963L66.0256 30.7627L66.469 30.7337L66.9129 30.709L67.3573 30.6888L67.8022 30.673L68.2473 30.6617L68.6928 30.6548L69.1386 30.6523L69.5846 30.6544L70.0308 30.6609L70.4771 30.6718L70.9236 30.6873L71.37 30.7072L71.8165 30.7316L72.263 30.7605L72.7093 30.7939L73.1556 30.8317L73.6017 30.874L74.0475 30.9209L74.4931 30.9722L74.9384 31.028L75.3833 31.0882L75.8278 31.153L76.2719 31.2222L76.7155 31.296L77.1585 31.3741L77.601 31.4568L78.0428 31.5439L78.484 31.6355L78.9244 31.7316L79.3641 31.8321L79.803 31.9371L80.241 32.0465L80.6781 32.1603L81.1143 32.2785L81.5495 32.4012L81.9837 32.5283L82.4168 32.6598L82.8487 32.7957L83.2795 32.936L83.7091 33.0807L84.1374 33.2297L84.5644 33.3831L84.9901 33.5408L85.4144 33.7029L85.8372 33.8693L86.2586 34.04L86.6784 34.2149L87.0967 34.3942L87.5134 34.5778L87.9284 34.7656L88.3417 34.9576L88.7533 35.1539L89.163 35.3543L89.571 35.559L89.9771 35.7678L90.3812 35.9808L90.7835 36.198L91.1837 36.4192L91.5818 36.6446L91.9779 36.8741L92.3719 37.1076L92.7637 37.3452L93.1532 37.5868L93.5406 37.8324L93.9256 38.082L94.3083 38.3356L94.6886 38.5931L95.0665 38.8546L95.442 39.1199L95.8149 39.3891L96.1853 39.6622L96.5532 39.9391L96.9184 40.2198L97.2809 40.5043L97.6408 40.7926L97.9979 41.0846L98.3523 41.3803L98.7038 41.6796L99.0525 41.9827L99.3983 42.2893L99.7412 42.5996L100.081 42.9134L100.418 43.2307L100.752 43.5516L101.083 43.876L101.41 44.2038L101.735 44.535L102.056 44.8697L102.374 45.2077L102.689 45.549L103.001 45.8937L103.309 46.2416L103.614 46.5927L103.915 46.9471L104.214 47.3046L104.508 47.6653L104.799 48.0291L105.087 48.396L105.371 48.7659L105.651 49.1388L105.928 49.5147L106.201 49.8935L106.471 50.2752L106.737 50.6598L106.999 51.0472L107.257 51.4375L107.511 51.8304L107.762 52.2261L108.009 52.6245L108.252 53.0255L108.49 53.4291L108.725 53.8353L108.956 54.2441L109.183 54.6553L109.406 55.0689L109.625 55.485L109.84 55.9035L110.051 56.3243L110.257 56.7474L110.46 57.1727L110.658 57.6002L110.852 58.03L111.042 58.4618L111.227 58.8957L111.408 59.3317L111.585 59.7697L111.758 60.2097L111.926 60.6515L112.09 61.0953L112.25 61.5408L112.405 61.9882L112.555 62.4373L112.702 62.8882L112.843 63.3406L112.981 63.7947L113.114 64.2504L113.242 64.7076L113.365 65.1663L113.485 65.6264L113.599 66.0879L113.709 66.5507L113.815 67.0149L113.915 67.4803L114.012 67.9469L114.103 68.4147L114.19 68.8836L114.272 69.3535L114.35 69.8245L114.422 70.2965L114.49 70.7694L114.554 71.2432L114.612 71.7178L114.666 72.1932L114.715 72.6694L114.76 73.1462L114.799 73.6238L114.834 74.1019L114.864 74.5805" stroke="white" stroke-width="2"/>
</svg>
