<svg width="690" height="110" viewBox="0 0 1075 110" fill="none" xmlns="http://www.w3.org/2000/svg">
<g clip-path="url(#clip0_883_275)">
<path d="M508.019 92.1824C511.194 97.6694 515.854 102.148 521.463 105.103C527.188 108.18 533.961 109.747 541.605 109.747C546.698 109.814 551.775 109.152 556.681 107.782C560.749 106.644 564.594 104.824 568.053 102.399C571.011 100.312 573.534 97.6714 575.483 94.6214C577.23 91.9134 578.313 88.8304 578.642 85.6244C578.663 85.4064 578.637 85.1854 578.567 84.9774C578.497 84.7694 578.385 84.5784 578.236 84.4174C578.088 84.2554 577.908 84.1264 577.707 84.0384C577.506 83.9504 577.289 83.9054 577.069 83.9064H557.736C557.356 83.9054 556.989 84.0414 556.703 84.2904C556.416 84.5384 556.228 84.8824 556.175 85.2584C556.039 86.0004 555.737 86.7024 555.291 87.3114C554.679 88.1514 553.903 88.8584 553.01 89.3904C551.706 90.1594 550.291 90.7214 548.815 91.0584C546.728 91.5484 544.589 91.7784 542.446 91.7404C538.712 91.7404 535.578 90.9884 533.12 89.5034C530.67 88.0254 528.746 85.8154 527.617 83.1854C527.243 82.3414 526.93 81.4714 526.682 80.5824H577.764C578.134 80.5814 578.492 80.4504 578.776 80.2124C579.06 79.9754 579.252 79.6454 579.318 79.2814C579.44 78.4984 579.512 77.7094 579.533 76.9184C579.578 75.9194 579.596 74.8774 579.596 73.8224C579.596 66.5064 578.042 59.9914 574.978 54.4504C571.929 48.9134 567.346 44.3744 561.779 41.3784C556.137 38.2954 549.377 36.7344 541.688 36.7344C534.175 36.7344 527.453 38.2704 521.71 41.3094C516.068 44.2324 511.365 48.6864 508.139 54.1604C504.91 59.6254 503.273 66.0514 503.273 73.2534C503.273 80.4564 504.859 86.7174 508.019 92.1824ZM526.973 64.4464C527.168 63.8824 527.394 63.3294 527.649 62.7904C528.817 60.2374 530.74 58.1024 533.158 56.6744C535.834 55.1814 538.865 54.4394 541.928 54.5264C545.327 54.5264 548.132 55.1584 550.249 56.4224C552.235 57.5414 553.859 59.2054 554.931 61.2174C555.458 62.2404 555.857 63.3254 556.118 64.4464H526.973Z" fill="#232025"/>
<path d="M447.277 108.23H466.926C467.345 108.23 467.747 108.064 468.043 107.767C468.339 107.471 468.506 107.069 468.506 106.651V74.9969C468.509 72.8049 468.79 70.6229 469.34 68.5019C469.868 66.4539 470.779 64.5238 472.025 62.8148C473.309 61.0948 474.988 59.7109 476.921 58.7779C479.356 57.6779 482.01 57.1529 484.68 57.2429C486.211 57.1939 487.739 57.3968 489.204 57.8428C489.986 58.0968 490.752 58.3988 491.497 58.7458C491.716 58.8688 491.961 58.9378 492.212 58.9468C492.462 58.9558 492.712 58.9049 492.939 58.7979C493.165 58.6909 493.363 58.5308 493.516 58.3318C493.669 58.1328 493.772 57.8999 493.816 57.6529L497.038 40.0888C497.097 39.7628 497.053 39.4268 496.911 39.1278C496.77 38.8288 496.538 38.5818 496.248 38.4208C495.212 37.9438 494.125 37.5879 493.007 37.3589C490.793 36.8709 488.526 36.6578 486.259 36.7278C482.912 36.6718 479.586 37.2679 476.466 38.4839C473.677 39.6089 471.146 41.2879 469.024 43.4189L468.506 43.9619V39.5709C468.506 39.1519 468.339 38.7499 468.043 38.4539C467.747 38.1579 467.345 37.9908 466.926 37.9908H447.277C446.858 37.9908 446.456 38.1579 446.16 38.4539C445.863 38.7499 445.697 39.1519 445.697 39.5709V106.67C445.702 107.085 445.871 107.482 446.166 107.774C446.462 108.066 446.861 108.23 447.277 108.23Z" fill="#232025"/>
<path fill-rule="evenodd" clip-rule="evenodd" d="M409.622 34.2739C411.593 33.5139 413.694 33.1519 415.806 33.2089C419.994 33.3199 423.971 35.0709 426.881 38.0849C429.792 41.0979 431.402 45.1349 431.367 49.3239C431.331 53.5139 429.652 57.5219 426.691 60.4859C423.73 63.4499 419.723 65.1329 415.534 65.1719H415.25C413.138 65.1559 411.05 64.7209 409.107 63.8929C407.164 63.0649 405.404 61.8599 403.929 60.3479C402.455 58.8359 401.294 57.0459 400.516 55.0829C399.737 53.1199 399.354 51.0219 399.391 48.9099C399.428 46.7979 399.883 44.7149 400.73 42.7799C401.576 40.8449 402.798 39.0969 404.324 37.6369C405.851 36.1769 407.651 35.0339 409.622 34.2739ZM413.505 60.4899C415.743 61.0439 418.106 60.7629 420.152 59.6999L420.215 59.6629C420.236 59.6519 420.254 59.6359 420.268 59.6159C420.281 59.5959 420.289 59.5729 420.291 59.5489C420.293 59.5289 420.29 59.5089 420.284 59.4899C420.278 59.4709 420.268 59.4529 420.255 59.4379C420.242 59.4229 420.227 59.4099 420.209 59.4009C420.191 59.3919 420.172 59.3859 420.152 59.3849L418.692 59.2709C418.212 59.2009 417.726 59.1249 417.252 59.0179L417.249 59.0169C416.776 58.9099 416.303 58.8029 415.843 58.6519C415.552 58.5559 415.266 58.4479 414.981 58.3399C414.814 58.2769 414.646 58.2129 414.478 58.1529C410.882 56.5889 408.015 53.7189 406.454 50.1219C406.4 49.9769 406.34 49.8319 406.281 49.6879C406.156 49.3819 406.03 49.0749 405.948 48.7569C405.907 48.5959 405.86 48.4359 405.814 48.2749C405.725 47.9699 405.636 47.6629 405.582 47.3479C405.55 47.1599 405.515 46.9719 405.481 46.7839C405.428 46.4939 405.375 46.2029 405.329 45.9079L405.215 44.4479C405.214 44.4239 405.206 44.3999 405.193 44.3789C405.179 44.3579 405.161 44.3409 405.14 44.3279C405.105 44.3099 405.065 44.3059 405.027 44.3159C404.99 44.3269 404.957 44.3519 404.938 44.3849L404.9 44.4479C403.842 46.4939 403.566 48.8539 404.122 51.0889C404.653 53.3749 405.813 55.4679 407.471 57.1299C409.129 58.7909 411.219 59.9549 413.505 60.4899Z" fill="#232025"/>
<path d="M415.319 73.2708C411.055 73.2708 407.346 72.3168 405.21 70.9388C405.116 70.8748 405.005 70.8378 404.891 70.8318C404.777 70.8248 404.664 70.8498 404.562 70.9028C404.461 70.9568 404.377 71.0358 404.317 71.1338C404.258 71.2308 404.226 71.3428 404.225 71.4568V106.643C404.225 107.062 404.391 107.464 404.687 107.76C404.984 108.056 405.385 108.223 405.804 108.223H425.201C425.62 108.223 426.021 108.056 426.318 107.76C426.614 107.464 426.78 107.062 426.78 106.643V71.4068C426.777 71.2948 426.743 71.1858 426.683 71.0908C426.623 70.9958 426.538 70.9188 426.439 70.8668C426.339 70.8158 426.227 70.7918 426.115 70.7978C426.003 70.8038 425.895 70.8388 425.801 70.9008C423.665 72.3538 419.742 73.3078 415.319 73.2708Z" fill="#232025"/>
<path d="M312.118 88.8144C313.787 93.1754 316.353 97.1374 319.649 100.445C322.745 103.485 326.437 105.851 330.491 107.395C334.513 108.933 338.783 109.719 343.089 109.714C348.408 109.752 353.648 108.434 358.316 105.885C359.812 105.067 361.23 104.111 362.549 103.029V106.618C362.549 107.037 362.716 107.439 363.012 107.735C363.308 108.031 363.71 108.198 364.129 108.198H383.715C384.134 108.198 384.535 108.031 384.832 107.735C385.128 107.439 385.294 107.037 385.294 106.618V39.5204C385.294 39.1014 385.128 38.6994 384.832 38.4034C384.535 38.1064 384.134 37.9404 383.715 37.9404H364.129C363.71 37.9404 363.308 38.1064 363.012 38.4034C362.716 38.6994 362.549 39.1014 362.549 39.5204V43.6524C361.238 42.5494 359.832 41.5634 358.348 40.7074C353.71 38.0324 348.443 36.6414 343.089 36.6764C338.861 36.6784 334.669 37.4514 330.718 38.9574C326.675 40.4954 322.976 42.8164 319.832 45.7874C316.501 48.9724 313.886 52.8294 312.162 57.1034C310.21 62.0414 309.255 67.3174 309.35 72.6274C309.35 78.7684 310.286 84.2084 312.118 88.8144ZM348.46 90.0334C345.884 90.0284 343.347 89.4134 341.055 88.2394C338.663 87.0074 336.685 85.1004 335.368 82.7554C333.896 80.2274 333.151 76.9234 333.151 72.8484C333.151 68.7734 333.89 65.5194 335.35 63.1564C336.668 60.9234 338.63 59.1414 340.979 58.0444C343.32 56.9734 345.866 56.4194 348.441 56.4214C350.83 56.4164 353.192 56.9364 355.359 57.9434C357.477 58.9274 359.276 60.4864 360.552 62.4424C361.867 64.4194 362.53 67.0294 362.53 70.1944V75.8804C362.63 78.6284 361.939 81.3474 360.54 83.7154C359.277 85.7334 357.482 87.3644 355.353 88.4284C353.21 89.4894 350.851 90.0384 348.46 90.0334Z" fill="#232025"/>
<path d="M249.272 0H229.939C229.067 0 228.359 0.706987 228.359 1.57999V125.604C228.359 126.477 229.067 127.184 229.939 127.184H249.272C250.145 127.184 250.852 126.477 250.852 125.604V1.57999C250.852 0.706987 250.145 0 249.272 0Z" fill="#232025"/>
<path d="M292.741 0H273.408C272.535 0 271.828 0.706987 271.828 1.57999V125.604C271.828 126.477 272.535 127.184 273.408 127.184H292.741C293.614 127.184 294.321 126.477 294.321 125.604V1.57999C294.321 0.706987 293.614 0 292.741 0Z" fill="#232025"/>
<path d="M141.112 92.1824C144.291 97.6674 148.95 102.145 154.557 105.103C160.281 108.18 167.06 109.747 174.705 109.747C179.798 109.813 184.875 109.152 189.78 107.782C193.848 106.642 197.693 104.822 201.153 102.399C204.108 100.312 206.63 97.6714 208.577 94.6214C210.32 91.9114 211.402 88.8294 211.736 85.6244C211.755 85.4064 211.729 85.1864 211.659 84.9784C211.588 84.7714 211.476 84.5804 211.328 84.4194C211.18 84.2574 211 84.1284 210.799 84.0404C210.599 83.9514 210.382 83.9064 210.163 83.9064H190.829C190.449 83.9054 190.081 84.0414 189.794 84.2894C189.506 84.5384 189.317 84.8814 189.262 85.2584C189.132 86.0014 188.831 86.7034 188.384 87.3114C187.77 88.1514 186.992 88.8584 186.097 89.3904C184.796 90.1604 183.383 90.7234 181.908 91.0584C179.822 91.5484 177.683 91.7784 175.54 91.7404C171.806 91.7404 168.672 90.9884 166.214 89.5034C163.764 88.0254 161.839 85.8154 160.711 83.1854C160.335 82.3414 160.02 81.4724 159.769 80.5824H210.858C211.228 80.5814 211.586 80.4504 211.87 80.2124C212.154 79.9754 212.346 79.6454 212.412 79.2814C212.53 78.4984 212.602 77.7094 212.627 76.9184C212.665 75.9194 212.69 74.8774 212.69 73.8224C212.69 66.5064 211.136 59.9914 208.071 54.4504C205.023 48.9134 200.44 44.3744 194.873 41.3784C189.224 38.2954 182.47 36.7344 174.781 36.7344C167.269 36.7344 160.546 38.2704 154.803 41.3094C149.161 44.2344 144.456 48.6874 141.226 54.1604C138.004 59.6254 136.367 66.0444 136.367 73.2534C136.367 80.4624 137.953 86.7174 141.112 92.1824ZM160.066 64.4464C160.275 63.8644 160.502 63.3084 160.749 62.7904C161.926 60.2424 163.846 58.1104 166.258 56.6744C168.934 55.1814 171.964 54.4394 175.028 54.5264C178.427 54.5264 181.226 55.1584 183.349 56.4224C185.333 57.5414 186.955 59.2054 188.024 61.2174C188.554 62.2394 188.953 63.3244 189.212 64.4464H160.066Z" fill="#232025"/>
<path d="M128.091 38.1414H109.705V17.6074C109.705 17.1884 109.539 16.7864 109.242 16.4904C108.946 16.1944 108.545 16.0273 108.126 16.0273H91.4458C91.0268 16.0273 90.6248 16.1944 90.3288 16.4904C90.0328 16.7864 89.8658 17.1884 89.8658 17.6074V28.2853C89.8918 30.3623 89.8018 32.4404 89.5948 34.5084C89.5578 35.4214 89.2738 36.3084 88.7728 37.0734C88.2908 37.5474 87.6538 37.8314 86.9788 37.8754C85.3378 38.0794 83.6848 38.1674 82.0318 38.1414H75.5868C75.1678 38.1414 74.7668 38.3073 74.4708 38.6043C74.1738 38.9003 74.0078 39.3013 74.0078 39.7203V52.9883C74.0078 53.4073 74.1738 53.8093 74.4708 54.1053C74.7668 54.4023 75.1678 54.5684 75.5868 54.5684H89.8658V89.5703C89.8658 93.8103 90.5608 97.3044 91.9388 99.9644C93.1938 102.493 95.1248 104.625 97.5178 106.124C99.7788 107.499 102.274 108.448 104.878 108.923C107.39 109.397 109.941 109.638 112.498 109.643C114.336 109.659 116.173 109.502 117.982 109.176C119.243 108.953 120.485 108.634 121.697 108.222C122.001 108.109 122.263 107.907 122.448 107.642C122.633 107.376 122.733 107.06 122.733 106.737V93.7213C122.732 93.4603 122.666 93.2034 122.542 92.9734C122.418 92.7434 122.238 92.5484 122.02 92.4044C121.802 92.2604 121.551 92.1734 121.291 92.1494C121.031 92.1254 120.769 92.1663 120.528 92.2683C119.755 92.5643 118.955 92.7873 118.14 92.9323C116.991 93.1703 115.82 93.2874 114.646 93.2794C111.809 93.2794 111.057 92.2243 110.742 91.4283C109.975 89.1943 109.627 86.8384 109.718 84.4784V54.5304H128.104C128.523 54.5304 128.924 54.3644 129.221 54.0674C129.517 53.7714 129.683 53.3694 129.683 52.9514V39.6823C129.673 39.2683 129.501 38.8744 129.203 38.5854C128.905 38.2974 128.506 38.1374 128.091 38.1414Z" fill="#232025"/>
<path d="M2.82105 96.7197C4.71005 99.6927 7.26105 102.188 10.276 104.011C13.5 105.971 17.008 107.421 20.676 108.307C24.583 109.273 28.5931 109.757 32.6171 109.747C36.5481 109.753 40.467 109.329 44.306 108.484C47.976 107.688 51.508 106.353 54.788 104.522C57.907 102.794 60.556 100.328 62.502 97.3387C64.498 94.1297 65.51 90.4067 65.415 86.6287C65.415 82.6047 64.454 79.2057 62.565 76.5197C60.683 73.8657 58.205 71.6897 55.331 70.1637C52.42 68.5957 49.332 67.3817 46.132 66.5497C42.973 65.7227 39.908 65.0587 37.052 64.5917C34.197 64.1237 31.505 63.5617 29.275 63.0057C27.578 62.6487 25.9611 61.9827 24.5051 61.0407C24.1161 60.8167 23.7941 60.4927 23.5721 60.1027C23.3501 59.7137 23.236 59.2718 23.241 58.8228C23.217 58.3998 23.306 57.9787 23.498 57.6017C23.69 57.2237 23.978 56.9047 24.334 56.6747C25.471 55.9227 26.7471 55.4057 28.0871 55.1527C31.1421 54.4117 34.338 54.4847 37.356 55.3667C38.646 55.7507 39.827 56.4327 40.806 57.3577C41.194 57.7467 41.496 58.2137 41.693 58.7267C41.89 59.2407 41.9771 59.7897 41.9491 60.3397V61.0977C41.9481 61.3047 41.989 61.5107 42.068 61.7027C42.147 61.8947 42.263 62.0697 42.41 62.2167C42.557 62.3627 42.731 62.4797 42.923 62.5587C43.115 62.6377 43.321 62.6777 43.528 62.6767H62.799C63.218 62.6767 63.62 62.5107 63.916 62.2147C64.212 61.9187 64.3781 61.5167 64.3781 61.0977V60.2127C64.4741 55.5167 62.829 50.9497 59.76 47.3937C56.584 43.8127 52.567 41.0767 48.071 39.4327C43.187 37.5947 38.006 36.6717 32.788 36.7097C27.456 36.6527 22.1521 37.4947 17.1001 39.1987C12.6201 40.6547 8.59404 43.2447 5.41104 46.7177C2.37804 50.1817 0.761043 54.6617 0.881043 59.2657C0.786043 62.6497 1.71604 65.9837 3.54704 68.8307C5.32804 71.4527 7.68905 73.6307 10.4471 75.1937C13.3061 76.8307 16.349 78.1227 19.513 79.0407C22.642 79.9607 25.824 80.6907 29.041 81.2267C34.355 82.1307 38.24 83.0407 40.597 83.9317C42.954 84.8217 43.276 86.1367 43.276 87.1917C43.281 87.6227 43.181 88.0477 42.984 88.4317C42.787 88.8147 42.4981 89.1437 42.1451 89.3897C41.0181 90.2157 39.724 90.7827 38.354 91.0517C36.632 91.4307 34.873 91.6197 33.11 91.6137C29.673 91.6137 26.9561 91.0957 25.0291 90.0847C24.2741 89.7437 23.639 89.1827 23.209 88.4747C22.778 87.7667 22.571 86.9447 22.616 86.1177V85.2327C22.617 85.0247 22.576 84.8197 22.497 84.6277C22.418 84.4357 22.302 84.2607 22.155 84.1137C22.008 83.9667 21.8331 83.8507 21.6411 83.7717C21.4491 83.6927 21.244 83.6527 21.036 83.6537H1.58304C1.37504 83.6527 1.16904 83.6927 0.977044 83.7717C0.785044 83.8507 0.611043 83.9667 0.464043 84.1137C0.317043 84.2607 0.201048 84.4357 0.122048 84.6277C0.0420478 84.8197 0.00204446 85.0247 0.00304446 85.2327V86.3697C-0.0619555 90.0177 0.915045 93.6087 2.82105 96.7197Z" fill="#232025"/>
<path d="M625.992 67.6556C620.421 67.5576 615.04 69.6776 611.032 73.5476C607.024 77.4186 604.718 82.7226 604.62 88.2936C604.523 93.8636 606.643 99.2456 610.513 103.253C614.384 107.261 619.688 109.568 625.259 109.665H625.631C631.148 109.629 636.429 107.424 640.334 103.527C644.239 99.6306 646.454 94.3536 646.501 88.8366C646.549 83.3206 644.424 78.0066 640.587 74.0436C636.749 70.0806 631.507 67.7856 625.992 67.6556Z" fill="#232025"/>
<path fill-rule="evenodd" clip-rule="evenodd" d="M972.52 34.2739C974.49 33.5139 976.59 33.1519 978.7 33.2089C982.89 33.3199 986.87 35.0709 989.78 38.0849C992.69 41.0979 994.3 45.1349 994.26 49.3239C994.23 53.5139 992.55 57.5219 989.59 60.4859C986.62 63.4499 982.62 65.1329 978.43 65.1719H978.14C976.03 65.1559 973.94 64.7209 972 63.8929C970.06 63.0649 968.3 61.8599 966.82 60.3479C965.35 58.8359 964.19 57.0459 963.41 55.0829C962.63 53.1199 962.25 51.0219 962.29 48.9099C962.32 46.7979 962.78 44.7149 963.62 42.7799C964.47 40.8449 965.69 39.0969 967.22 37.6369C968.75 36.1769 970.55 35.0339 972.52 34.2739ZM980.79 37.2769C978.55 36.7229 976.19 37.0039 974.14 38.0669L974.08 38.1049C974.05 38.1159 974.04 38.1319 974.02 38.1519C974.01 38.1719 974 38.1949 974 38.2189C974 38.2389 974 38.2589 974.01 38.2779C974.01 38.2969 974.02 38.3149 974.04 38.3299C974.05 38.3449 974.06 38.3579 974.08 38.3669C974.1 38.3759 974.12 38.3809 974.14 38.3829L975.6 38.4969C976.08 38.5659 976.57 38.6419 977.04 38.7499C977.52 38.8569 977.99 38.9649 978.45 39.1159C978.74 39.2109 979.02 39.3199 979.31 39.4279C979.48 39.4909 979.64 39.5539 979.81 39.6149C983.41 41.1789 986.28 44.0489 987.84 47.6449C987.89 47.7909 987.95 47.9349 988.01 48.0789C988.14 48.3859 988.26 48.6919 988.34 49.0099C988.38 49.1709 988.43 49.3319 988.48 49.4919C988.57 49.7979 988.66 50.1039 988.71 50.4189C988.74 50.6079 988.78 50.7959 988.81 50.9829C988.86 51.2739 988.92 51.5639 988.96 51.8599L989.08 53.3189C989.08 53.3439 989.09 53.3679 989.1 53.3889C989.11 53.4089 989.13 53.4269 989.15 53.4389C989.19 53.4579 989.23 53.4619 989.26 53.4509C989.3 53.4409 989.33 53.4159 989.35 53.3819L989.39 53.3189C990.45 51.2739 990.72 48.9129 990.17 46.6789C989.64 44.3919 988.48 42.2999 986.82 40.6379C985.16 38.9759 983.07 37.8119 980.79 37.2769Z" fill="#232025"/>
<path d="M978.26 73.2268C976.56 73.2318 974.87 73.0919 973.2 72.8099C973.16 72.8019 973.11 72.8029 973.07 72.8149C973.02 72.8269 972.98 72.8478 972.94 72.8778C972.91 72.9068 972.88 72.9439 972.86 72.9859C972.84 73.0279 972.83 73.0728 972.83 73.1188V106.65C972.83 107.069 973 107.47 973.29 107.767C973.59 108.063 973.99 108.229 974.41 108.229H982.05C982.26 108.23 982.46 108.19 982.65 108.111C982.85 108.032 983.02 107.915 983.17 107.769C983.31 107.622 983.43 107.447 983.51 107.255C983.59 107.063 983.63 106.857 983.63 106.65C983.63 106.65 983.63 81.0678 983.63 73.1188C983.63 73.0728 983.62 73.0279 983.6 72.9859C983.58 72.9439 983.55 72.9068 983.51 72.8778C983.48 72.8478 983.44 72.8269 983.39 72.8149C983.35 72.8029 983.3 72.8019 983.25 72.8099C981.6 73.0919 979.93 73.2318 978.26 73.2268Z" fill="#232025"/>
<path d="M886.88 92.7554C889.32 97.8874 893.19 102.204 898.03 105.189C902.72 107.921 908.05 109.38 913.48 109.421C918.91 109.462 924.26 108.083 928.99 105.422C931.27 104.106 933.37 102.503 935.24 100.652V106.648C935.24 107.067 935.41 107.469 935.7 107.765C936 108.061 936.4 108.228 936.82 108.228H944.65C944.86 108.229 945.07 108.188 945.26 108.109C945.45 108.03 945.62 107.914 945.77 107.767C945.92 107.62 946.03 107.446 946.11 107.254C946.19 107.062 946.23 106.856 946.23 106.648V7.89642C946.23 7.68842 946.19 7.48241 946.11 7.29041C946.03 7.09841 945.92 6.9244 945.77 6.7774C945.62 6.6304 945.45 6.51442 945.26 6.43542C945.07 6.35642 944.86 6.31641 944.65 6.31641H936.82C936.4 6.31641 936 6.48342 935.7 6.77942C935.41 7.07542 935.24 7.47742 935.24 7.89642V45.5904C933.3 43.7324 931.13 42.1394 928.77 40.8514C924.15 38.3094 918.96 36.9914 913.69 37.0224C908.2 36.9664 902.8 38.4334 898.09 41.2624C893.28 44.2474 889.41 48.5284 886.92 53.6144C884.19 58.9534 882.8 65.5054 882.8 73.0994C882.8 80.6934 884.19 87.3784 886.88 92.7554ZM924.97 96.2114C921.85 97.9884 918.32 98.9084 914.73 98.8774C908.66 98.8774 903.8 96.7794 899.88 92.4704C895.97 88.1614 894.01 81.6664 894.01 73.0994C894.01 64.5324 895.98 57.9354 899.88 53.6904C903.78 49.4444 908.65 47.3214 914.73 47.3214C918.27 47.3014 921.76 48.2104 924.84 49.9564C927.9 51.6654 930.5 54.0914 932.42 57.0264C934.3 59.8854 935.28 63.2354 935.26 66.6554V78.9564C935.3 82.4964 934.33 85.9744 932.47 88.9834C930.61 91.9834 928.04 94.4694 924.97 96.2114Z" fill="#232025"/>
<path d="M806.07 90.4428C806.811 93.7048 808.138 96.8049 809.988 99.5919C812.001 102.569 814.727 104.995 817.917 106.649C821.278 108.45 825.537 109.366 830.553 109.366C834.499 109.437 838.413 108.649 842.024 107.058C845.635 105.466 848.856 103.108 851.466 100.148V106.649C851.466 107.068 851.632 107.47 851.929 107.766C852.225 108.062 852.627 108.229 853.045 108.229H860.88C861.299 108.229 861.701 108.062 861.997 107.766C862.293 107.47 862.46 107.068 862.46 106.649V39.5508C862.46 39.1318 862.293 38.7298 861.997 38.4338C861.701 38.1378 861.299 37.9709 860.88 37.9709H853.045C852.627 37.9709 852.225 38.1378 851.929 38.4338C851.632 38.7298 851.466 39.1318 851.466 39.5508V77.6488C851.441 81.1718 850.574 84.6378 848.939 87.7578C847.311 90.9868 844.926 93.7738 841.989 95.8828C839.05 97.9698 835.522 99.0618 831.918 98.9978C827.868 98.9978 824.665 98.1068 822.39 96.3568C820.079 94.5858 818.369 92.1458 817.494 89.3688C816.484 86.2558 815.978 83.0008 815.996 79.7278V39.5439C815.996 39.1249 815.83 38.7238 815.533 38.4268C815.237 38.1308 814.836 37.9648 814.417 37.9648H806.519C806.1 37.9648 805.698 38.1308 805.402 38.4268C805.106 38.7238 804.939 39.1249 804.939 39.5439V81.4329C804.982 84.4689 805.361 87.4908 806.07 90.4428Z" fill="#232025"/>
<path d="M743.705 47.9983H758.299V91.4673C758.218 94.3823 758.659 97.2873 759.601 100.047C760.309 102.108 761.521 103.96 763.128 105.432C764.735 106.904 766.685 107.951 768.8 108.475C770.736 108.972 772.727 109.223 774.726 109.221C776.189 109.228 777.649 109.114 779.092 108.88C780.224 108.714 781.334 108.426 782.403 108.02C782.693 107.902 782.94 107.699 783.115 107.44C783.289 107.18 783.382 106.874 783.382 106.561V99.7373C783.381 99.4763 783.316 99.2193 783.191 98.9893C783.067 98.7593 782.887 98.5643 782.669 98.4203C782.451 98.2763 782.201 98.1893 781.94 98.1653C781.68 98.1413 781.418 98.1823 781.177 98.2843C780.448 98.5593 779.692 98.7583 778.922 98.8783C777.88 99.0693 776.823 99.1673 775.763 99.1693C772.427 99.1693 771.34 97.8173 770.816 96.7933C769.818 94.8983 769.318 92.1302 769.318 88.6172V47.9983H789.22C789.639 47.9983 790.041 47.8323 790.337 47.5363C790.633 47.2393 790.8 46.8383 790.8 46.4193V39.5323C790.8 39.1133 790.633 38.7113 790.337 38.4153C790.041 38.1193 789.639 37.9523 789.22 37.9523H769.318V17.8613C769.318 17.4423 769.152 17.0403 768.856 16.7443C768.559 16.4483 768.158 16.2812 767.739 16.2812H759.904C759.485 16.2812 759.084 16.4483 758.787 16.7443C758.491 17.0403 758.325 17.4423 758.325 17.8613V34.2253C758.325 35.4313 758.293 36.3853 758.236 37.0553C758.221 37.2893 758.176 37.5213 758.104 37.7443C757.987 37.7953 757.864 37.8273 757.737 37.8393C756.946 37.9263 756.151 37.9653 755.356 37.9523H743.73C743.311 37.9523 742.909 38.1193 742.613 38.4153C742.317 38.7113 742.15 39.1133 742.15 39.5323V46.4193C742.15 46.8333 742.313 47.2313 742.604 47.5273C742.895 47.8223 743.29 47.9923 743.705 47.9983Z" fill="#232025"/>
<path d="M671.741 88.9904C671.742 92.0474 672.518 95.0534 673.997 97.7284C675.493 100.329 677.576 102.545 680.081 104.198C682.86 106.019 685.934 107.344 689.166 108.115C692.912 109.023 696.755 109.465 700.609 109.429C704.371 109.446 708.122 109.022 711.786 108.166C715.051 107.421 718.17 106.14 721.016 104.375C723.598 102.757 725.762 100.553 727.334 97.9434C728.516 96.0254 729.308 93.8934 729.664 91.6684C730.021 89.4444 729.935 87.1714 729.412 84.9804C728.889 82.7884 727.939 80.7224 726.617 78.8984C725.294 77.0744 723.625 75.5294 721.705 74.3514C719.057 72.7364 716.208 71.4774 713.232 70.6054C709.793 69.5804 706.298 68.7554 702.763 68.1344C699.198 67.4964 695.676 66.6374 692.218 65.5634C689.803 64.8824 687.572 63.6664 685.691 62.0054C684.997 61.3224 684.457 60.4984 684.104 59.5904C683.751 58.6824 683.595 57.7094 683.645 56.7364C683.599 55.7574 683.769 54.7794 684.144 53.8734C684.518 52.9674 685.088 52.1544 685.812 51.4924C687.631 49.9324 689.797 48.8294 692.13 48.2764C694.927 47.5484 697.806 47.1854 700.697 47.1964C703.556 47.1774 706.401 47.5884 709.138 48.4154C711.447 49.0754 713.542 50.3334 715.21 52.0614C716.67 53.6284 717.377 55.6944 717.377 58.3794V59.5164C717.377 59.9354 717.544 60.3374 717.84 60.6334C718.136 60.9294 718.538 61.0964 718.957 61.0964H726.804C727.011 61.0974 727.217 61.0564 727.409 60.9774C727.601 60.8984 727.775 60.7824 727.922 60.6354C728.069 60.4884 728.186 60.3144 728.265 60.1224C728.344 59.9304 728.384 59.7244 728.383 59.5164V58.1074C728.383 53.3624 727.05 49.3694 724.415 46.2234C721.677 43.0404 718.143 40.6414 714.174 39.2734C709.791 37.7214 705.17 36.9514 700.52 36.9984C695.858 36.9484 691.221 37.7054 686.816 39.2354C682.901 40.5524 679.396 42.8654 676.644 45.9454C674.025 49.0104 672.628 52.9334 672.721 56.9644C672.645 60.0104 673.401 63.0204 674.907 65.6704C676.372 68.1094 678.4 70.1634 680.82 71.6604C683.441 73.2864 686.264 74.5614 689.217 75.4504C692.529 76.4644 695.907 77.2514 699.326 77.8074C705.966 78.9574 711.04 80.3854 714.401 82.0594C717.364 83.5254 718.824 85.9264 718.824 89.3954C718.846 90.3434 718.674 91.2854 718.319 92.1644C717.964 93.0434 717.432 93.8404 716.758 94.5064C715 96.1624 712.853 97.3494 710.515 97.9564C707.338 98.8364 704.051 99.2624 700.754 99.2194C695.017 99.2194 690.506 98.2214 687.341 96.2624C684.358 94.4174 682.861 91.8974 682.747 88.6054V86.7094C682.748 86.5024 682.708 86.2964 682.629 86.1044C682.549 85.9124 682.434 85.7384 682.287 85.5914C682.14 85.4444 681.965 85.3274 681.773 85.2484C681.581 85.1694 681.375 85.1294 681.167 85.1304H673.27C672.851 85.1304 672.449 85.2964 672.153 85.5934C671.857 85.8894 671.69 86.2914 671.69 86.7094V87.7524C671.685 88.1654 671.702 88.5794 671.741 88.9904Z" fill="#232025"/>
<path d="M1009.12 91.5932C1012.01 96.9852 1016.32 101.486 1021.57 104.609C1027.11 107.824 1033.42 109.465 1039.82 109.354C1046.65 109.354 1052.79 107.755 1058.07 104.609C1063.32 101.482 1067.62 96.9822 1070.5 91.5932C1073.54 85.8802 1075.08 79.4932 1074.99 73.0242C1075.1 66.5692 1073.55 60.1942 1070.5 54.5062C1067.59 49.1792 1063.28 44.7542 1058.03 41.7122C1052.76 38.6352 1046.62 37.0742 1039.8 37.0742C1032.97 37.0742 1026.84 38.6352 1021.56 41.7122C1016.32 44.7552 1012.01 49.1812 1009.1 54.5062C1006.05 60.1932 1004.5 66.5692 1004.6 73.0242C1004.52 79.4962 1006.07 85.8842 1009.12 91.5932ZM1039.82 47.3662C1044.22 47.2762 1048.56 48.3882 1052.38 50.5822C1055.98 52.7332 1058.91 55.8362 1060.86 59.5482C1062.99 63.7122 1064.06 68.3412 1063.96 73.0182C1064.04 77.7172 1062.98 82.3652 1060.86 86.5582C1058.92 90.3382 1055.98 93.5132 1052.36 95.7382C1048.55 97.9082 1044.23 99.0492 1039.84 99.0492C1035.45 99.0492 1031.13 97.9082 1027.31 95.7382C1023.68 93.5202 1020.74 90.3432 1018.8 86.5582C1016.67 82.3662 1015.6 77.7172 1015.69 73.0182C1015.59 68.3402 1016.65 63.7112 1018.79 59.5482C1020.74 55.8312 1023.69 52.7292 1027.3 50.5892C1031.1 48.3972 1035.43 47.2832 1039.82 47.3662Z" fill="#232025"/>
</g>
<defs>
<clipPath id="clip0_883_275">
<rect width="1075" height="110" fill="white"/>
</clipPath>
</defs>
</svg>
