<svg width="354" height="77" viewBox="0 0 354 77" fill="none" xmlns="http://www.w3.org/2000/svg">
<g clip-path="url(#clip0_47_1636)">
<g filter="url(#filter0_ii_47_1636)">
<rect y="0.706787" width="76.2931" height="76.2931" rx="7.62931" fill="#07213B"/>
<rect y="0.706787" width="76.2931" height="76.2931" rx="7.62931" fill="url(#paint0_linear_47_1636)"/>
<path d="M38.4355 58.0312L38.4355 38.681L18.624 38.681" stroke="#E11D48" stroke-width="13.1238" stroke-linecap="round"/>
<path opacity="0.5" d="M38.4775 19.3306V38.6809H58.289" stroke="white" stroke-width="13.1238" stroke-linecap="round"/>
<rect x="0.635552" y="1.34234" width="75.022" height="75.022" rx="6.99376" stroke="white" stroke-opacity="0.1" stroke-width="1.2711"/>
</g>
</g>
<path d="M97.8597 31.0089C96.8079 31.0089 96.0358 30.6508 95.5434 29.9347C95.0511 29.2186 95.0511 28.3234 95.5434 27.2492L103.902 9.25622C104.305 8.38342 104.797 7.74561 105.379 7.34279C105.961 6.93996 106.644 6.73854 107.427 6.73854C108.188 6.73854 108.859 6.93996 109.441 7.34279C110.023 7.74561 110.515 8.38342 110.918 9.25622L119.277 27.2492C119.791 28.3458 119.814 29.2521 119.344 29.9683C118.874 30.662 118.135 31.0089 117.128 31.0089C116.233 31.0089 115.539 30.8075 115.047 30.4047C114.577 30.0018 114.152 29.3528 113.771 28.4577L112.697 25.9064H102.123L101.049 28.4577C100.646 29.3528 100.232 30.0018 99.8067 30.4047C99.3815 30.8075 98.7325 31.0089 97.8597 31.0089ZM107.36 13.4859L104.137 21.1732H110.649L107.427 13.4859H107.36ZM135.474 31.076C134.109 31.076 132.699 30.9418 131.244 30.6732C129.812 30.3823 128.581 29.9795 127.552 29.4647C126.947 29.1738 126.522 28.7822 126.276 28.2898C126.03 27.7975 125.94 27.2939 126.007 26.7792C126.075 26.2421 126.265 25.7721 126.578 25.3693C126.891 24.9441 127.305 24.6644 127.82 24.5301C128.335 24.3734 128.917 24.4406 129.566 24.7315C130.416 25.1567 131.378 25.4812 132.453 25.705C133.527 25.9064 134.534 26.0071 135.474 26.0071C136.951 26.0071 137.98 25.8169 138.562 25.4365C139.166 25.0336 139.469 24.5413 139.469 23.9594C139.469 23.4447 139.256 23.0307 138.831 22.7174C138.428 22.4041 137.701 22.1355 136.649 21.9117L132.721 21.0725C128.469 20.1549 126.343 17.9282 126.343 14.3923C126.343 12.8481 126.757 11.4941 127.585 10.3304C128.436 9.1667 129.611 8.27153 131.11 7.64491C132.609 6.99591 134.355 6.67141 136.347 6.67141C137.51 6.67141 138.685 6.80568 139.871 7.07423C141.08 7.32041 142.121 7.70086 142.993 8.21558C143.665 8.57365 144.09 9.06599 144.269 9.69261C144.448 10.2969 144.426 10.8899 144.202 11.4718C143.978 12.0536 143.575 12.4788 142.993 12.7474C142.434 13.0159 141.718 12.9712 140.845 12.6131C140.174 12.3222 139.435 12.1096 138.629 11.9753C137.824 11.8186 137.04 11.7403 136.28 11.7403C135.026 11.7403 134.064 11.9641 133.393 12.4117C132.721 12.8369 132.386 13.3964 132.386 14.0901C132.386 14.5825 132.587 14.9853 132.99 15.2986C133.393 15.6119 134.109 15.8805 135.138 16.1043L139.032 16.9435C143.351 17.8611 145.511 20.0319 145.511 23.4559C145.511 25.0001 145.097 26.3428 144.269 27.4842C143.441 28.6255 142.277 29.5095 140.778 30.1361C139.278 30.7627 137.51 31.076 135.474 31.076ZM161.333 31.0089C160.348 31.0089 159.587 30.7404 159.05 30.2033C158.513 29.6661 158.244 28.8941 158.244 27.887V12.076H152.974C151.273 12.076 150.423 11.2368 150.423 9.55834C150.423 7.87989 151.273 7.04066 152.974 7.04066H169.691C171.392 7.04066 172.243 7.87989 172.243 9.55834C172.243 11.2368 171.392 12.076 169.691 12.076H164.421V27.887C164.421 28.8941 164.152 29.6661 163.615 30.2033C163.101 30.7404 162.34 31.0089 161.333 31.0089ZM181.983 31.0089C180.998 31.0089 180.237 30.7404 179.7 30.2033C179.163 29.6661 178.894 28.8941 178.894 27.887V10.1626C178.894 9.15551 179.163 8.38342 179.7 7.84632C180.237 7.30922 181.009 7.04066 182.016 7.04066H190.274C192.96 7.04066 195.03 7.70085 196.485 9.02123C197.962 10.3192 198.7 12.132 198.7 14.4594C198.7 16.2274 198.253 17.7156 197.357 18.9241C196.485 20.1102 195.209 20.9382 193.53 21.4082C194.784 21.7439 195.791 22.6055 196.552 23.993L198.23 27.0142C198.588 27.6856 198.745 28.3234 198.7 28.9276C198.678 29.5319 198.443 30.0354 197.995 30.4382C197.548 30.8187 196.887 31.0089 196.015 31.0089C195.142 31.0089 194.426 30.8411 193.866 30.5054C193.329 30.1473 192.848 29.5766 192.423 28.7934L189.368 23.1873C189.099 22.695 188.752 22.3593 188.327 22.1803C187.924 21.9789 187.454 21.8781 186.917 21.8781H185.071V27.887C185.071 28.8941 184.803 29.6661 184.265 30.2033C183.751 30.7404 182.99 31.0089 181.983 31.0089ZM185.071 17.5142H189.167C191.606 17.5142 192.826 16.5519 192.826 14.6273C192.826 12.725 191.606 11.7739 189.167 11.7739H185.071V17.5142ZM210.438 30.7068C208.289 30.7068 207.215 29.6438 207.215 27.5177V10.2297C207.215 8.10368 208.289 7.04066 210.438 7.04066H221.817C223.429 7.04066 224.234 7.82394 224.234 9.39049C224.234 11.0018 223.429 11.8075 221.817 11.8075H213.123V16.3057H221.079C222.69 16.3057 223.496 17.1002 223.496 18.6891C223.496 20.278 222.69 21.0725 221.079 21.0725H213.123V25.94H221.817C223.429 25.94 224.234 26.7345 224.234 28.3234C224.234 29.9123 223.429 30.7068 221.817 30.7068H210.438ZM235.542 31.0089C234.558 31.0089 233.797 30.7404 233.26 30.2033C232.723 29.6661 232.454 28.8829 232.454 27.8534V9.89403C232.454 8.86458 232.723 8.0813 233.26 7.5442C233.797 7.0071 234.558 6.73854 235.542 6.73854C236.527 6.73854 237.288 7.0071 237.825 7.5442C238.362 8.0813 238.631 8.86458 238.631 9.89403V27.8534C238.631 28.8829 238.362 29.6661 237.825 30.2033C237.31 30.7404 236.549 31.0089 235.542 31.0089ZM250.418 31.0089C248.493 31.0089 247.531 30.0354 247.531 28.0884V9.79332C247.531 8.80863 247.777 8.05892 248.269 7.5442C248.761 7.0071 249.41 6.73854 250.216 6.73854C250.932 6.73854 251.481 6.87282 251.861 7.14137C252.264 7.40992 252.723 7.85751 253.237 8.48413L262.939 20.6025V9.62548C262.939 7.70085 263.89 6.73854 265.792 6.73854C266.732 6.73854 267.437 6.99591 267.907 7.51063C268.399 8.00298 268.646 8.70792 268.646 9.62548V28.2227C268.646 29.0731 268.422 29.7557 267.974 30.2704C267.527 30.7627 266.922 31.0089 266.161 31.0089C265.401 31.0089 264.796 30.8746 264.349 30.6061C263.923 30.3375 263.465 29.8899 262.972 29.2633L253.271 17.1449V28.0884C253.271 30.0354 252.32 31.0089 250.418 31.0089ZM286.249 31.0089C285.265 31.0089 284.504 30.7404 283.967 30.2033C283.43 29.6661 283.161 28.8941 283.161 27.887V12.076H277.891C276.19 12.076 275.34 11.2368 275.34 9.55834C275.34 7.87989 276.19 7.04066 277.891 7.04066H294.608C296.309 7.04066 297.159 7.87989 297.159 9.55834C297.159 11.2368 296.309 12.076 294.608 12.076H289.338V27.887C289.338 28.8941 289.069 29.6661 288.532 30.2033C288.017 30.7404 287.257 31.0089 286.249 31.0089ZM307.034 30.7068C304.885 30.7068 303.811 29.6438 303.811 27.5177V10.2297C303.811 8.10368 304.885 7.04066 307.034 7.04066H318.414C320.025 7.04066 320.831 7.82394 320.831 9.39049C320.831 11.0018 320.025 11.8075 318.414 11.8075H309.719V16.3057H317.675C319.286 16.3057 320.092 17.1002 320.092 18.6891C320.092 20.278 319.286 21.0725 317.675 21.0725H309.719V25.94H318.414C320.025 25.94 320.831 26.7345 320.831 28.3234C320.831 29.9123 320.025 30.7068 318.414 30.7068H307.034Z" fill="#838D97"/>
<path d="M107.091 69.0089C106.241 69.0089 105.547 68.8299 105.01 68.4718C104.495 68.1137 104.059 67.5431 103.701 66.7598L95.577 48.834C95.2189 48.0507 95.1071 47.3457 95.2413 46.7191C95.3756 46.0925 95.6889 45.6113 96.1813 45.2756C96.6736 44.9176 97.289 44.7385 98.0276 44.7385C98.9227 44.7385 99.6053 44.94 100.075 45.3428C100.545 45.7456 100.948 46.3387 101.284 47.1219L107.192 60.8181L113.1 47.0884C113.436 46.3051 113.839 45.7232 114.308 45.3428C114.778 44.94 115.439 44.7385 116.289 44.7385C116.983 44.7385 117.565 44.9176 118.035 45.2756C118.505 45.6337 118.796 46.1261 118.907 46.7527C119.042 47.3569 118.93 48.0507 118.572 48.834L110.414 66.7598C110.079 67.5431 109.642 68.1137 109.105 68.4718C108.591 68.8299 107.919 69.0089 107.091 69.0089ZM129.374 69.0089C128.389 69.0089 127.628 68.7404 127.091 68.2033C126.554 67.6661 126.285 66.8829 126.285 65.8534V47.894C126.285 46.8646 126.554 46.0813 127.091 45.5442C127.628 45.0071 128.389 44.7385 129.374 44.7385C130.358 44.7385 131.119 45.0071 131.656 45.5442C132.194 46.0813 132.462 46.8646 132.462 47.894V65.8534C132.462 66.8829 132.194 67.6661 131.656 68.2033C131.142 68.7404 130.381 69.0089 129.374 69.0089ZM150.023 69.0089C149.038 69.0089 148.277 68.7404 147.74 68.2033C147.203 67.6661 146.934 66.8941 146.934 65.887V50.076H141.664C139.963 50.076 139.113 49.2368 139.113 47.5583C139.113 45.8799 139.963 45.0407 141.664 45.0407H158.381C160.082 45.0407 160.933 45.8799 160.933 47.5583C160.933 49.2368 160.082 50.076 158.381 50.076H153.111V65.887C153.111 66.8941 152.843 67.6661 152.306 68.2033C151.791 68.7404 151.03 69.0089 150.023 69.0089ZM166.037 69.0089C164.985 69.0089 164.213 68.6508 163.721 67.9347C163.228 67.2186 163.228 66.3234 163.721 65.2492L172.079 47.2562C172.482 46.3834 172.975 45.7456 173.556 45.3428C174.138 44.94 174.821 44.7385 175.604 44.7385C176.365 44.7385 177.036 44.94 177.618 45.3428C178.2 45.7456 178.692 46.3834 179.095 47.2562L187.454 65.2492C187.969 66.3458 187.991 67.2521 187.521 67.9683C187.051 68.662 186.313 69.0089 185.306 69.0089C184.41 69.0089 183.717 68.8075 183.224 68.4047C182.754 68.0018 182.329 67.3528 181.949 66.4577L180.874 63.9064H170.3L169.226 66.4577C168.823 67.3528 168.409 68.0018 167.984 68.4047C167.559 68.8075 166.91 69.0089 166.037 69.0089ZM175.537 51.4859L172.314 59.1732H178.827L175.604 51.4859H175.537ZM198.273 68.7068C197.266 68.7068 196.494 68.4382 195.957 67.9011C195.42 67.3416 195.151 66.5696 195.151 65.5849V48.129C195.151 47.1219 195.42 46.3499 195.957 45.8128C196.494 45.2756 197.255 45.0071 198.239 45.0071C199.224 45.0071 199.985 45.2756 200.522 45.8128C201.059 46.3499 201.328 47.1219 201.328 48.129V63.5707H209.519C210.369 63.5707 211.018 63.7945 211.466 64.2421C211.936 64.6897 212.171 65.3163 212.171 66.122C212.171 66.95 211.936 67.5878 211.466 68.0354C211.018 68.483 210.369 68.7068 209.519 68.7068H198.273ZM222.629 68.7068C220.481 68.7068 219.407 67.6438 219.407 65.5177V48.2297C219.407 46.1037 220.481 45.0407 222.629 45.0407H234.009C235.621 45.0407 236.426 45.8239 236.426 47.3905C236.426 49.0018 235.621 49.8075 234.009 49.8075H225.315V54.3057H233.271C234.882 54.3057 235.688 55.1002 235.688 56.6891C235.688 58.278 234.882 59.0725 233.271 59.0725H225.315V63.94H234.009C235.621 63.94 236.426 64.7345 236.426 66.3234C236.426 67.9123 235.621 68.7068 234.009 68.7068H222.629Z" fill="#E11D48"/>
<defs>
<filter id="filter0_ii_47_1636" x="0" y="0.706787" width="80.3607" height="78.8354" filterUnits="userSpaceOnUse" color-interpolation-filters="sRGB">
<feFlood flood-opacity="0" result="BackgroundImageFix"/>
<feBlend mode="normal" in="SourceGraphic" in2="BackgroundImageFix" result="shape"/>
<feColorMatrix in="SourceAlpha" type="matrix" values="0 0 0 0 0 0 0 0 0 0 0 0 0 0 0 0 0 0 127 0" result="hardAlpha"/>
<feOffset dx="4.06753" dy="2.54221"/>
<feGaussianBlur stdDeviation="2.28799"/>
<feComposite in2="hardAlpha" operator="arithmetic" k2="-1" k3="1"/>
<feColorMatrix type="matrix" values="0 0 0 0 1 0 0 0 0 1 0 0 0 0 1 0 0 0 0.05 0"/>
<feBlend mode="normal" in2="shape" result="effect1_innerShadow_47_1636"/>
<feColorMatrix in="SourceAlpha" type="matrix" values="0 0 0 0 0 0 0 0 0 0 0 0 0 0 0 0 0 0 127 0" result="hardAlpha"/>
<feOffset dy="0.508442"/>
<feGaussianBlur stdDeviation="0.254221"/>
<feComposite in2="hardAlpha" operator="arithmetic" k2="-1" k3="1"/>
<feColorMatrix type="matrix" values="0 0 0 0 0 0 0 0 0 0 0 0 0 0 0 0 0 0 0.25 0"/>
<feBlend mode="normal" in2="effect1_innerShadow_47_1636" result="effect2_innerShadow_47_1636"/>
</filter>
<linearGradient id="paint0_linear_47_1636" x1="14.6152" y1="0.743796" x2="66.9658" y2="76.3845" gradientUnits="userSpaceOnUse">
<stop stop-color="#142C45"/>
<stop offset="1" stop-opacity="0"/>
</linearGradient>
<clipPath id="clip0_47_1636">
<rect y="0.706787" width="76.2931" height="76.2931" rx="1.52586" fill="white"/>
</clipPath>
</defs>
</svg>
