<svg width="258" height="95" viewBox="0 0 258 95" fill="none" xmlns="http://www.w3.org/2000/svg">
<path d="M8.82 38.9704C7.38889 38.9704 6.08222 38.6437 4.9 37.9904C3.74889 37.3059 2.81556 36.4193 2.1 35.3304C1.41556 34.2415 1.07333 33.0593 1.07333 31.7837C1.07333 30.1659 1.52444 28.8437 2.42667 27.817C3.32889 26.7904 4.72889 26.0437 6.62667 25.577C8.52445 25.0793 10.9511 24.8304 13.9067 24.8304H17.5933L17.0333 28.4704H14.0467C12.5222 28.4704 11.3089 28.5637 10.4067 28.7504C9.50444 28.9059 8.85111 29.2015 8.44667 29.637C8.04222 30.0415 7.84 30.6015 7.84 31.317C7.84 32.2504 8.15111 32.9815 8.77333 33.5104C9.42667 34.0081 10.2356 34.257 11.2 34.257C12.1022 34.257 12.8956 34.0704 13.58 33.697C14.2956 33.3237 14.8867 32.7948 15.3533 32.1104C15.8511 31.4259 16.1622 30.617 16.2867 29.6837L17.1733 24.2237C17.3911 22.9481 17.1578 21.9681 16.4733 21.2837C15.82 20.5993 14.7 20.257 13.1133 20.257C12.1489 20.257 11.2 20.3504 10.2667 20.537C9.36445 20.7237 8.41556 21.0348 7.42 21.4704C6.70445 21.7193 6.08222 21.7659 5.55333 21.6104C5.02444 21.4548 4.58889 21.1748 4.24667 20.7704C3.93556 20.3659 3.78 19.8993 3.78 19.3704C3.81111 18.8104 4.01333 18.2815 4.38667 17.7837C4.76 17.2859 5.36667 16.8659 6.20667 16.5237C7.54445 15.9948 8.88222 15.6215 10.22 15.4037C11.5578 15.1859 12.8489 15.077 14.0933 15.077C16.7067 15.077 18.76 15.5593 20.2533 16.5237C21.7467 17.4881 22.7578 18.7948 23.2867 20.4437C23.8156 22.0615 23.9089 23.8815 23.5667 25.9037L22.0733 35.377C21.9178 36.5281 21.5133 37.3993 20.86 37.9904C20.2067 38.5815 19.3511 38.877 18.2933 38.877C17.2667 38.877 16.5044 38.5504 16.0067 37.897C15.5089 37.2437 15.3689 36.2793 15.5867 35.0037L15.96 32.5304L16.1933 33.7904C15.7267 34.9726 15.1044 35.9526 14.3267 36.7304C13.58 37.5081 12.74 38.0837 11.8067 38.457C10.8733 38.7993 9.87778 38.9704 8.82 38.9704ZM36.6166 38.9704C35.1543 38.9704 33.7388 38.8304 32.3699 38.5504C31.001 38.2704 29.8032 37.9126 28.7766 37.477C28.061 37.1659 27.5477 36.7615 27.2366 36.2637C26.9566 35.7659 26.8321 35.2526 26.8632 34.7237C26.9255 34.1948 27.0966 33.7281 27.3766 33.3237C27.6877 32.9193 28.1077 32.6548 28.6366 32.5304C29.1655 32.3748 29.7566 32.437 30.4099 32.717C31.4055 33.1837 32.4321 33.5415 33.4899 33.7904C34.5477 34.0081 35.5743 34.117 36.5699 34.117C37.9077 34.117 38.9032 33.8837 39.5566 33.417C40.241 32.9504 40.5832 32.3593 40.5832 31.6437C40.5832 31.1148 40.3966 30.6948 40.0232 30.3837C39.681 30.0415 39.121 29.8081 38.3432 29.6837L34.0966 28.8904C32.2921 28.5793 30.8921 27.9104 29.8966 26.8837C28.901 25.8259 28.4032 24.5037 28.4032 22.917C28.4032 21.517 28.8077 20.2259 29.6166 19.0437C30.4566 17.8304 31.6855 16.8659 33.3032 16.1504C34.921 15.4348 36.9121 15.077 39.2766 15.077C40.3032 15.077 41.4232 15.2015 42.6366 15.4504C43.8499 15.6993 44.9232 16.057 45.8566 16.5237C46.541 16.8348 47.0232 17.2393 47.3032 17.737C47.5832 18.2348 47.6921 18.7326 47.6299 19.2304C47.5988 19.7281 47.4121 20.1793 47.0699 20.5837C46.7588 20.957 46.3388 21.2059 45.8099 21.3304C45.281 21.4237 44.6743 21.3304 43.9899 21.0504C43.2432 20.677 42.4188 20.397 41.5166 20.2104C40.6455 19.9926 39.7743 19.8837 38.9032 19.8837C37.5032 19.8837 36.4455 20.1326 35.7299 20.6304C35.0455 21.1281 34.7032 21.7659 34.7032 22.5437C34.7032 22.9793 34.8432 23.3681 35.1232 23.7104C35.4343 24.0215 35.9321 24.2393 36.6166 24.3637L40.8166 25.157C42.8077 25.5304 44.3166 26.2304 45.3432 27.257C46.3699 28.2526 46.8832 29.5437 46.8832 31.1304C46.8832 33.6504 45.9343 35.5948 44.0366 36.9637C42.1699 38.3015 39.6966 38.9704 36.6166 38.9704ZM61.3175 38.9704C59.1086 38.9704 57.3041 38.5659 55.9041 37.757C54.5352 36.9481 53.5708 35.8437 53.0108 34.4437C52.4508 33.0126 52.3263 31.3793 52.6374 29.5437L54.0374 20.817H52.4508C51.5797 20.817 50.8952 20.6304 50.3974 20.257C49.8997 19.8526 49.6508 19.2926 49.6508 18.577C49.6508 17.6126 49.9619 16.8659 50.5841 16.337C51.2374 15.8081 52.093 15.5437 53.1508 15.5437H54.8308L55.4841 11.6704C55.6708 10.5815 56.0752 9.77258 56.6974 9.24369C57.3197 8.68369 58.1752 8.40369 59.2641 8.40369C60.4775 8.40369 61.3486 8.74592 61.8774 9.43036C62.4063 10.1148 62.5775 11.0637 62.3908 12.277L61.8774 15.5437H65.8908C66.793 15.5437 67.493 15.7304 67.9908 16.1037C68.4886 16.477 68.7375 17.0215 68.7375 17.737C68.7375 18.6081 68.4419 19.3393 67.8508 19.9304C67.2908 20.5215 66.513 20.817 65.5175 20.817H61.0841L59.7308 29.1704C59.4819 30.6326 59.653 31.6748 60.2441 32.297C60.8352 32.9193 61.6597 33.2304 62.7175 33.2304C63.2463 33.2304 63.6663 33.1993 63.9775 33.137C64.2886 33.0437 64.6152 32.997 64.9575 32.997C65.4552 32.997 65.813 33.137 66.0308 33.417C66.2797 33.6659 66.4041 34.1637 66.4041 34.9104C66.4041 36.217 66.1863 37.1193 65.7508 37.617C65.3463 38.1148 64.7863 38.4415 64.0708 38.597C63.6663 38.7215 63.2152 38.8148 62.7175 38.877C62.2197 38.9393 61.753 38.9704 61.3175 38.9704ZM72.018 38.877C70.8669 38.877 70.0269 38.5348 69.498 37.8504C69.0002 37.1348 68.8602 36.1548 69.078 34.9104L71.6446 18.5304C71.8313 17.4104 72.2513 16.5704 72.9046 16.0104C73.5891 15.4504 74.4758 15.1704 75.5646 15.1704C76.6846 15.1704 77.4935 15.5126 77.9913 16.197C78.4891 16.8504 78.6446 17.8148 78.458 19.0904L78.0846 21.1437H77.6646C78.2558 19.3081 79.2513 17.8615 80.6513 16.8037C82.0824 15.7459 83.7313 15.1704 85.598 15.077C86.5313 15.0459 87.1846 15.217 87.558 15.5904C87.9313 15.9326 88.118 16.5237 88.118 17.3637C88.118 18.6081 87.8224 19.5259 87.2313 20.117C86.6713 20.7081 85.8002 21.0659 84.618 21.1904L83.078 21.3304C81.2424 21.517 79.9202 22.077 79.1113 23.0104C78.3024 23.9126 77.758 25.2348 77.478 26.977L76.1246 35.4704C75.9691 36.6215 75.5335 37.477 74.818 38.037C74.1335 38.597 73.2002 38.877 72.018 38.877ZM99.7529 38.9704C97.3574 38.9704 95.2729 38.5348 93.4996 37.6637C91.7263 36.7615 90.3574 35.517 89.3929 33.9304C88.4285 32.3437 87.9463 30.5081 87.9463 28.4237C87.9463 25.8104 88.5063 23.5081 89.6263 21.517C90.7463 19.5259 92.2707 17.9548 94.1996 16.8037C96.1596 15.6526 98.3685 15.077 100.826 15.077C102.755 15.077 104.388 15.4037 105.726 16.057C107.064 16.7104 108.122 17.597 108.9 18.717C109.677 19.8059 110.191 21.0659 110.44 22.497C110.72 23.897 110.782 25.3437 110.626 26.837C110.533 27.5526 110.331 28.0193 110.02 28.237C109.708 28.4237 109.288 28.517 108.76 28.517H93.6396L94.1529 24.877H105.866L105.12 25.5304C105.275 24.4104 105.228 23.4304 104.98 22.5904C104.731 21.7193 104.264 21.0348 103.58 20.537C102.895 20.0081 101.962 19.7437 100.78 19.7437C99.5974 19.7437 98.5863 20.0237 97.7463 20.5837C96.9374 21.1126 96.2996 21.8126 95.8329 22.6837C95.3663 23.5237 95.0396 24.457 94.8529 25.4837L94.6196 27.117C94.2774 29.1704 94.6196 30.7881 95.6463 31.9704C96.704 33.1215 98.3063 33.697 100.453 33.697C101.262 33.697 102.133 33.6037 103.066 33.417C104.031 33.2304 104.886 32.9504 105.633 32.577C106.317 32.2348 106.908 32.1259 107.406 32.2504C107.935 32.3437 108.34 32.5926 108.62 32.997C108.9 33.4015 109.04 33.8681 109.04 34.397C109.071 34.8948 108.931 35.4081 108.62 35.937C108.34 36.4348 107.888 36.8548 107.266 37.197C106.177 37.7881 104.948 38.2237 103.58 38.5037C102.211 38.8148 100.935 38.9704 99.7529 38.9704ZM116.358 38.877C115.269 38.877 114.46 38.5193 113.932 37.8037C113.434 37.057 113.294 36.0459 113.512 34.7704L116.078 18.6704C116.234 17.4881 116.654 16.617 117.338 16.057C118.023 15.4659 118.956 15.1704 120.138 15.1704C121.227 15.1704 122.02 15.5281 122.518 16.2437C123.016 16.9593 123.172 17.9704 122.985 19.277L120.418 35.377C120.232 36.5281 119.812 37.3993 119.158 37.9904C118.505 38.5815 117.572 38.877 116.358 38.877ZM120.792 11.3437C119.547 11.3437 118.614 11.0481 117.992 10.457C117.4 9.86592 117.167 9.02592 117.292 7.93703C117.478 6.7237 117.96 5.82147 118.738 5.23036C119.516 4.60814 120.574 4.29703 121.912 4.29703C123.156 4.29703 124.089 4.59258 124.712 5.18369C125.334 5.77481 125.552 6.63036 125.365 7.75036C125.209 8.93259 124.743 9.83481 123.965 10.457C123.187 11.0481 122.129 11.3437 120.792 11.3437ZM128.892 38.7837C127.803 38.7837 126.994 38.4259 126.465 37.7104C125.967 36.9637 125.827 35.9526 126.045 34.677L128.565 18.6704C128.752 17.4881 129.187 16.617 129.872 16.057C130.556 15.4659 131.459 15.1704 132.579 15.1704C133.636 15.1704 134.414 15.497 134.912 16.1504C135.441 16.7726 135.596 17.7059 135.379 18.9504L135.005 21.4237L134.912 19.8837C135.69 18.3281 136.779 17.1459 138.179 16.337C139.579 15.497 141.227 15.077 143.125 15.077C144.805 15.077 146.221 15.4193 147.372 16.1037C148.523 16.7881 149.332 17.8459 149.799 19.277C150.296 20.7081 150.374 22.5593 150.032 24.8304L148.352 35.2837C148.196 36.4659 147.776 37.3526 147.092 37.9437C146.407 38.5037 145.474 38.7837 144.292 38.7837C143.203 38.7837 142.394 38.4259 141.865 37.7104C141.367 36.9637 141.212 35.9526 141.399 34.677L142.939 24.9704C143.187 23.477 143.079 22.3726 142.612 21.657C142.176 20.9104 141.336 20.537 140.092 20.537C138.505 20.537 137.23 21.0504 136.265 22.077C135.301 23.0726 134.679 24.457 134.399 26.2304L132.952 35.2837C132.61 37.617 131.256 38.7837 128.892 38.7837ZM164.859 38.9704C162.65 38.9704 160.846 38.5659 159.446 37.757C158.077 36.9481 157.112 35.8437 156.552 34.4437C155.992 33.0126 155.868 31.3793 156.179 29.5437L157.579 20.817H155.992C155.121 20.817 154.437 20.6304 153.939 20.257C153.441 19.8526 153.192 19.2926 153.192 18.577C153.192 17.6126 153.504 16.8659 154.126 16.337C154.779 15.8081 155.635 15.5437 156.692 15.5437H158.372L159.026 11.6704C159.212 10.5815 159.617 9.77258 160.239 9.24369C160.861 8.68369 161.717 8.40369 162.806 8.40369C164.019 8.40369 164.89 8.74592 165.419 9.43036C165.948 10.1148 166.119 11.0637 165.932 12.277L165.419 15.5437H169.432C170.335 15.5437 171.035 15.7304 171.532 16.1037C172.03 16.477 172.279 17.0215 172.279 17.737C172.279 18.6081 171.984 19.3393 171.392 19.9304C170.832 20.5215 170.055 20.817 169.059 20.817H164.626L163.272 29.1704C163.024 30.6326 163.195 31.6748 163.786 32.297C164.377 32.9193 165.201 33.2304 166.259 33.2304C166.788 33.2304 167.208 33.1993 167.519 33.137C167.83 33.0437 168.157 32.997 168.499 32.997C168.997 32.997 169.355 33.137 169.572 33.417C169.821 33.6659 169.946 34.1637 169.946 34.9104C169.946 36.217 169.728 37.1193 169.292 37.617C168.888 38.1148 168.328 38.4415 167.612 38.597C167.208 38.7215 166.757 38.8148 166.259 38.877C165.761 38.9393 165.295 38.9704 164.859 38.9704Z" fill="#F83469"/>
<path fill-rule="evenodd" clip-rule="evenodd" d="M179.061 95.0002C175.204 95.0002 172.341 93.8802 170.475 91.6402C168.732 89.4002 168.172 86.2269 168.795 82.1202L172.528 58.2269H150.128C146.395 58.2269 143.532 57.418 141.541 55.8002C139.55 54.1824 138.555 52.0046 138.555 49.2669C138.555 45.2846 139.675 42.1113 141.915 39.7469C144.279 37.3824 147.515 36.2002 151.621 36.2002H176.075L176.49 33.4362C177.358 34.4747 178.447 35.3269 179.755 35.9927C181.529 36.8638 183.613 37.2993 186.009 37.2993C187.191 37.2993 188.467 37.1438 189.835 36.8327C191.204 36.5527 192.433 36.1171 193.522 35.526C194.144 35.1838 194.595 34.7638 194.875 34.266C195.187 33.7371 195.327 33.2238 195.295 32.726C195.295 32.1971 195.155 31.7305 194.875 31.326C194.595 30.9216 194.191 30.6727 193.662 30.5793C193.164 30.4549 192.573 30.5638 191.889 30.906C191.142 31.2793 190.287 31.5593 189.322 31.746C188.389 31.9327 187.518 32.026 186.709 32.026C184.562 32.026 182.96 31.4505 181.902 30.2993C181.121 29.4002 180.736 28.2491 180.747 26.846H195.015C195.544 26.846 195.964 26.7527 196.275 26.566C196.587 26.3482 196.789 25.8816 196.882 25.166C197.038 23.6727 196.975 22.226 196.695 20.826C196.447 19.3949 195.933 18.1349 195.155 17.046C194.378 15.926 193.32 15.0393 191.982 14.386C190.644 13.7327 189.011 13.406 187.082 13.406C184.624 13.406 182.415 13.9816 180.455 15.1327C179.98 15.4163 179.529 15.7255 179.103 16.0601L179.808 11.3735C180.43 7.6402 181.799 4.90243 183.915 3.16021C186.03 1.41799 188.955 0.546875 192.688 0.546875C196.297 0.546875 199.035 1.66687 200.901 3.90686C202.768 6.14687 203.328 9.3202 202.581 13.4269L199.221 36.2002H221.435C225.292 36.2002 228.217 37.0091 230.208 38.6269C232.199 40.2446 233.195 42.4224 233.195 45.1602C233.195 49.1424 232.012 52.3158 229.648 54.6802C227.408 57.0446 224.235 58.2269 220.128 58.2269H195.488L191.568 83.9869C190.946 87.7202 189.639 90.5202 187.648 92.3869C185.657 94.1291 182.795 95.0002 179.061 95.0002ZM181.238 23.206H191.444C191.504 22.3541 191.435 21.5918 191.235 20.9193C190.987 20.0482 190.52 19.3638 189.835 18.866C189.151 18.3371 188.218 18.0727 187.035 18.0727C185.853 18.0727 184.842 18.3527 184.002 18.9127C183.193 19.4416 182.555 20.1416 182.089 21.0127C181.716 21.6841 181.432 22.4153 181.238 23.206ZM167.788 52.906C167.424 52.906 167.166 52.7993 167.015 52.586C166.873 52.3637 166.833 52.0615 166.895 51.6793L168.068 44.306C168.175 43.6126 168.566 43.266 169.241 43.266C169.597 43.266 169.846 43.3726 169.988 43.586C170.13 43.7993 170.17 44.1015 170.108 44.4926L168.935 51.8526C168.828 52.5549 168.446 52.906 167.788 52.906ZM156.981 52.906C156.412 52.906 156.038 52.6082 155.861 52.0126L153.727 44.666C153.621 44.2837 153.656 43.9771 153.834 43.746C154.021 43.506 154.283 43.386 154.621 43.386C154.878 43.386 155.092 43.4526 155.261 43.586C155.438 43.7104 155.572 43.946 155.661 44.2926L157.247 50.1326L160.794 44.106C160.945 43.8482 161.105 43.666 161.274 43.5593C161.443 43.4437 161.665 43.386 161.941 43.386C162.35 43.386 162.625 43.5282 162.767 43.8126C162.91 44.0882 162.878 44.3904 162.674 44.7193L158.154 52.186C158.003 52.4348 157.838 52.6171 157.661 52.7326C157.483 52.8482 157.256 52.906 156.981 52.906ZM177.24 52.586C177.4 52.7993 177.644 52.906 177.973 52.906C178.631 52.906 179.018 52.5593 179.133 51.866L180.213 45.0926H182.56C182.88 45.0926 183.129 45.0037 183.306 44.826C183.484 44.6393 183.573 44.386 183.573 44.066C183.573 43.6126 183.271 43.386 182.667 43.386H176.066C175.746 43.386 175.493 43.4748 175.306 43.6526C175.129 43.8304 175.04 44.0793 175.04 44.3993C175.04 44.6126 175.12 44.7815 175.28 44.906C175.44 45.0304 175.662 45.0926 175.946 45.0926H178.133L177.093 51.6926C177.031 52.0748 177.08 52.3726 177.24 52.586ZM186.41 52.906C186.045 52.906 185.779 52.7904 185.61 52.5593C185.441 52.3193 185.459 52.0304 185.663 51.6926L190.436 43.9726C190.587 43.7237 190.752 43.546 190.93 43.4393C191.107 43.3237 191.334 43.266 191.61 43.266C192.161 43.266 192.521 43.5504 192.69 44.1193L194.943 51.6526C195.067 52.0704 195.041 52.386 194.863 52.5993C194.694 52.8037 194.45 52.906 194.13 52.906C193.836 52.906 193.61 52.8349 193.45 52.6926C193.29 52.5415 193.17 52.3104 193.09 51.9993L192.77 50.746H188.343L187.436 52.306C187.196 52.706 186.854 52.906 186.41 52.906ZM191.37 45.586L189.29 49.1326H192.33L191.396 45.586H191.37ZM200.435 52.4926C200.604 52.6882 200.871 52.786 201.235 52.786H205.729C206.049 52.786 206.302 52.6971 206.489 52.5193C206.675 52.3326 206.769 52.0748 206.769 51.746C206.769 51.2748 206.458 51.0393 205.835 51.0393H202.435L203.489 44.3993C203.551 44.0437 203.498 43.7682 203.329 43.5726C203.169 43.3682 202.915 43.266 202.569 43.266C201.92 43.266 201.546 43.586 201.449 44.226L200.262 51.6526C200.209 52.0082 200.266 52.2882 200.435 52.4926ZM212.919 52.786C212.136 52.786 211.803 52.3993 211.919 51.626L213.065 44.386C213.163 43.7193 213.55 43.386 214.225 43.386H218.812C219.381 43.386 219.665 43.6037 219.665 44.0393C219.665 44.3415 219.576 44.5771 219.399 44.746C219.23 44.9148 218.999 44.9993 218.705 44.9993H214.945L214.599 47.1993H217.919C218.479 47.1993 218.759 47.4171 218.759 47.8526C218.759 48.1637 218.67 48.4037 218.492 48.5726C218.323 48.7415 218.096 48.826 217.812 48.826H214.345L213.972 51.1726H217.572C218.141 51.1726 218.425 51.3904 218.425 51.826C218.425 52.1282 218.336 52.3637 218.159 52.5326C217.99 52.7015 217.759 52.786 217.465 52.786H212.919Z" fill="#F83469"/>
</svg>
